<?xml version="1.0" encoding="UTF-8" standalone="no"?>
<svg xmlns="http://www.w3.org/2000/svg" xmlns:xlink="http://www.w3.org/1999/xlink" width="48" height="48" version="1.0">
  <defs>
    <radialGradient xlink:href="#a" id="f" cx="19.701141" cy="2.8969381" r="17.171415" fx="19.701141" fy="2.8969381" gradientTransform="matrix(2.04673 0 0 1.55761 -19.51799 3.452086)" gradientUnits="userSpaceOnUse"/>
    <radialGradient xlink:href="#b" id="d" cx="24.837126" cy="36.421127" r="15.644737" fx="24.837126" fy="36.421127" gradientTransform="matrix(1 0 0 .53672 0 16.87306)" gradientUnits="userSpaceOnUse"/>
    <radialGradient xlink:href="#c" id="e" cx="22.291636" cy="32.797512" r="16.9562" fx="22.291636" fy="32.797512" gradientTransform="matrix(.84302 0 0 1.02017 4.499298 1.381992)" gradientUnits="userSpaceOnUse"/>
    <linearGradient id="c">
      <stop offset="0" stop-color="#73d216"/>
      <stop offset="1" stop-color="#4e9a06"/>
    </linearGradient>
    <linearGradient id="b">
      <stop offset="0"/>
      <stop offset="1" stop-opacity="0"/>
    </linearGradient>
    <linearGradient id="a">
      <stop offset="0" stop-color="#fff"/>
      <stop offset="1" stop-color="#fff" stop-opacity="0"/>
    </linearGradient>
  </defs>
  <g color="#000">
    <path fill="url(#d)" fill-rule="evenodd" d="M40.481863 36.421127a15.644737 8.3968935 0 1 1-31.2894745 0 15.644737 8.3968935 0 1 1 31.2894745 0z" opacity=".29946522" overflow="visible" style="marker:none" transform="translate(-8.119376 -15.10179) scale(1.27119)"/>
    <path fill="url(#e)" fill-rule="evenodd" stroke="#3a7304" stroke-linecap="round" stroke-linejoin="round" stroke-miterlimit="10" stroke-width="1.00000036" d="M8.5541875 15.517348v16.99442H21.538v8.545038l19.959835-16.906441L21.41919 7.1251168v8.3975352l-12.8650025-.005304z" overflow="visible" style="marker:none"/>
    <path fill="url(#f)" fill-rule="evenodd" d="M21.962385 8.2485033v7.8064747H9.1452151v9.040713c17.7499999 2 16.6335369-7.455288 31.3835369-.955288L21.962385 8.2485033z" opacity=".5080214" overflow="visible" style="marker:none"/>
    <path fill="none" stroke="#fff" stroke-miterlimit="10" stroke-width="1.00000036" d="M9.537702 16.561892v14.98444h12.985367v7.395166l17.478014-14.795691L22.507108 9.3654066v7.2013824l-12.969406-.004897z" opacity=".48128339" overflow="visible" style="marker:none"/>
  </g>
</svg>