<?xml version="1.0" encoding="UTF-8" standalone="no"?>
<!-- Created with Inkscape (http://www.inkscape.org/) -->

<svg
   xmlns:dc="http://purl.org/dc/elements/1.1/"
   xmlns:cc="http://creativecommons.org/ns#"
   xmlns:rdf="http://www.w3.org/1999/02/22-rdf-syntax-ns#"
   xmlns:svg="http://www.w3.org/2000/svg"
   xmlns="http://www.w3.org/2000/svg"
   xmlns:xlink="http://www.w3.org/1999/xlink"
   xmlns:sodipodi="http://sodipodi.sourceforge.net/DTD/sodipodi-0.dtd"
   xmlns:inkscape="http://www.inkscape.org/namespaces/inkscape"
   width="48px"
   height="48px"
   id="svg1306"
   sodipodi:version="0.32"
   inkscape:version="0.48.4 r9939"
   sodipodi:docname="plask.svg"
   inkscape:output_extension="org.inkscape.output.svg.inkscape"
   version="1.1"
   inkscape:export-filename="/home/maciek/Dokumenty/PLaSK/plask/gui/icons/hicolor/24x24/plask.png"
   inkscape:export-xdpi="45"
   inkscape:export-ydpi="45">
  <defs
     id="defs1308">
    <inkscape:perspective
       sodipodi:type="inkscape:persp3d"
       inkscape:vp_x="0 : 24 : 1"
       inkscape:vp_y="0 : 1000 : 0"
       inkscape:vp_z="48 : 24 : 1"
       inkscape:persp3d-origin="24 : 16 : 1"
       id="perspective69" />
    <radialGradient
       inkscape:collect="always"
       xlink:href="#linearGradient5060"
       id="radialGradient5031"
       gradientUnits="userSpaceOnUse"
       gradientTransform="matrix(-2.774389,0,0,1.969706,112.7623,-872.8854)"
       cx="605.71429"
       cy="486.64789"
       fx="605.71429"
       fy="486.64789"
       r="117.14286" />
    <linearGradient
       inkscape:collect="always"
       id="linearGradient5060">
      <stop
         style="stop-color:black;stop-opacity:1;"
         offset="0"
         id="stop5062" />
      <stop
         style="stop-color:black;stop-opacity:0;"
         offset="1"
         id="stop5064" />
    </linearGradient>
    <radialGradient
       inkscape:collect="always"
       xlink:href="#linearGradient5060"
       id="radialGradient5029"
       gradientUnits="userSpaceOnUse"
       gradientTransform="matrix(2.774389,0,0,1.969706,-1891.633,-872.8854)"
       cx="605.71429"
       cy="486.64789"
       fx="605.71429"
       fy="486.64789"
       r="117.14286" />
    <linearGradient
       id="linearGradient5048">
      <stop
         style="stop-color:black;stop-opacity:0;"
         offset="0"
         id="stop5050" />
      <stop
         id="stop5056"
         offset="0.5"
         style="stop-color:black;stop-opacity:1;" />
      <stop
         style="stop-color:black;stop-opacity:0;"
         offset="1"
         id="stop5052" />
    </linearGradient>
    <linearGradient
       inkscape:collect="always"
       xlink:href="#linearGradient5048"
       id="linearGradient5027"
       gradientUnits="userSpaceOnUse"
       gradientTransform="matrix(2.774389,0,0,1.969706,-1892.179,-872.8854)"
       x1="302.85715"
       y1="366.64789"
       x2="302.85715"
       y2="609.50507" />
    <linearGradient
       inkscape:collect="always"
       id="linearGradient2223">
      <stop
         style="stop-color:#ffffff;stop-opacity:1;"
         offset="0"
         id="stop2225" />
      <stop
         style="stop-color:#ffffff;stop-opacity:0;"
         offset="1"
         id="stop2229" />
    </linearGradient>
    <linearGradient
       id="linearGradient2222">
      <stop
         style="stop-color:#5187d6;stop-opacity:1;"
         offset="0"
         id="stop2224" />
      <stop
         style="stop-color:#1e4580;stop-opacity:1;"
         offset="1"
         id="stop2227" />
    </linearGradient>
    <linearGradient
       id="linearGradient3090">
      <stop
         style="stop-color:#626c07;stop-opacity:1;"
         offset="0"
         id="stop3092" />
      <stop
         style="stop-color:#313603;stop-opacity:1;"
         offset="1"
         id="stop3094" />
    </linearGradient>
    <linearGradient
       inkscape:collect="always"
       id="linearGradient2238">
      <stop
         style="stop-color:#ffffff;stop-opacity:1;"
         offset="0"
         id="stop2240" />
      <stop
         style="stop-color:#ffffff;stop-opacity:0;"
         offset="1"
         id="stop2242" />
    </linearGradient>
    <linearGradient
       id="linearGradient2224">
      <stop
         style="stop-color:#32342f;stop-opacity:0.54639173;"
         offset="0.0000000"
         id="stop2226" />
      <stop
         style="stop-color:#32342f;stop-opacity:0;"
         offset="1"
         id="stop2228" />
    </linearGradient>
    <linearGradient
       id="linearGradient2214">
      <stop
         style="stop-color:#a9aaa7;stop-opacity:1.0000000;"
         offset="0.0000000"
         id="stop2216" />
      <stop
         style="stop-color:#676964;stop-opacity:1.0000000;"
         offset="1.0000000"
         id="stop2218" />
    </linearGradient>
    <linearGradient
       id="linearGradient2206">
      <stop
         style="stop-color:#c3c6c0;stop-opacity:1.0000000;"
         offset="0.0000000"
         id="stop2208" />
      <stop
         style="stop-color:#e8eae6;stop-opacity:1.0000000;"
         offset="1.0000000"
         id="stop2210" />
    </linearGradient>
    <linearGradient
       id="linearGradient2198">
      <stop
         style="stop-color:#32342f;stop-opacity:1;"
         offset="0"
         id="stop2200" />
      <stop
         style="stop-color:#171816;stop-opacity:1.0000000;"
         offset="1.0000000"
         id="stop2202" />
    </linearGradient>
    <linearGradient
       inkscape:collect="always"
       id="linearGradient2180">
      <stop
         style="stop-color:#ffffff;stop-opacity:1;"
         offset="0"
         id="stop2182" />
      <stop
         style="stop-color:#ffffff;stop-opacity:0;"
         offset="1"
         id="stop2184" />
    </linearGradient>
    <linearGradient
       inkscape:collect="always"
       xlink:href="#linearGradient2206"
       id="linearGradient2212"
       x1="25.861118"
       y1="26.133587"
       x2="18.300278"
       y2="19.567596"
       gradientUnits="userSpaceOnUse"
       gradientTransform="matrix(0.952387,0.000000,0.000000,1.018339,1.142599,-1.941627)" />
    <linearGradient
       inkscape:collect="always"
       xlink:href="#linearGradient2214"
       id="linearGradient2220"
       x1="0.0012142062"
       y1="24.012266"
       x2="47.998765"
       y2="24.012266"
       gradientUnits="userSpaceOnUse"
       gradientTransform="matrix(0.952387,0.000000,0.000000,1.018339,1.142599,-1.941627)" />
    <radialGradient
       inkscape:collect="always"
       xlink:href="#linearGradient2224"
       id="radialGradient2230"
       cx="24.041630"
       cy="42.242130"
       fx="24.041630"
       fy="42.242130"
       r="17.576654"
       gradientTransform="matrix(1.000000,0.000000,0.000000,0.304598,-5.757924e-16,29.37527)"
       gradientUnits="userSpaceOnUse" />
    <linearGradient
       inkscape:collect="always"
       xlink:href="#linearGradient2238"
       id="linearGradient2244"
       x1="20.338758"
       y1="19.636894"
       x2="46.092255"
       y2="39.708324"
       gradientUnits="userSpaceOnUse"
       gradientTransform="matrix(0.952387,0.000000,0.000000,1.015657,1.142599,-0.876325)" />
    <linearGradient
       inkscape:collect="always"
       xlink:href="#linearGradient2180"
       id="linearGradient1340"
       gradientUnits="userSpaceOnUse"
       gradientTransform="matrix(3.809547,0.000000,0.000000,1.750325,-16.00036,-15.78719)"
       x1="8.8207808"
       y1="12.53757"
       x2="12.499243"
       y2="24.238262" />
    <radialGradient
       inkscape:collect="always"
       xlink:href="#linearGradient2222"
       id="radialGradient2229"
       cx="22.301212"
       cy="36.257378"
       fx="22.301212"
       fy="36.257378"
       r="19.088932"
       gradientTransform="matrix(1.768625,0,0,1.387102,-18.44248,-15.29268)"
       gradientUnits="userSpaceOnUse" />
    <linearGradient
       inkscape:collect="always"
       xlink:href="#linearGradient2223"
       id="linearGradient2231"
       x1="35.694206"
       y1="37.333858"
       x2="15.044075"
       y2="5.9588566"
       gradientUnits="userSpaceOnUse" />
  </defs>
  <sodipodi:namedview
     id="base"
     pagecolor="#ffffff"
     bordercolor="#666666"
     borderopacity="0.25490196"
     inkscape:pageopacity="0.0"
     inkscape:pageshadow="2"
     inkscape:zoom="1.9999999"
     inkscape:cx="-10.447461"
     inkscape:cy="32.198322"
     inkscape:current-layer="layer1"
     showgrid="false"
     inkscape:grid-bbox="true"
     inkscape:document-units="px"
     inkscape:window-width="1854"
     inkscape:window-height="1050"
     inkscape:window-x="66"
     inkscape:window-y="30"
     inkscape:showpageshadow="false"
     fill="#204a87"
     inkscape:window-maximized="1">
    <inkscape:grid
       type="xygrid"
       id="grid3045" />
  </sodipodi:namedview>
  <metadata
     id="metadata1311">
    <rdf:RDF>
      <cc:Work
         rdf:about="">
        <dc:format>image/svg+xml</dc:format>
        <dc:type
           rdf:resource="http://purl.org/dc/dcmitype/StillImage" />
        <dc:title />
        <dc:date>2005-10-10</dc:date>
        <dc:creator>
          <cc:Agent>
            <dc:title>Andreas Nilsson</dc:title>
          </cc:Agent>
        </dc:creator>
        <dc:subject>
          <rdf:Bag>
            <rdf:li>system</rdf:li>
            <rdf:li>monitor</rdf:li>
            <rdf:li>performance</rdf:li>
          </rdf:Bag>
        </dc:subject>
        <cc:license
           rdf:resource="http://creativecommons.org/licenses/publicdomain/" />
        <dc:contributor>
          <cc:Agent>
            <dc:title>Jakub Steiner</dc:title>
          </cc:Agent>
        </dc:contributor>
      </cc:Work>
      <cc:License
         rdf:about="http://creativecommons.org/licenses/publicdomain/">
        <cc:permits
           rdf:resource="http://creativecommons.org/ns#Reproduction" />
        <cc:permits
           rdf:resource="http://creativecommons.org/ns#Distribution" />
        <cc:permits
           rdf:resource="http://creativecommons.org/ns#DerivativeWorks" />
      </cc:License>
    </rdf:RDF>
  </metadata>
  <g
     id="layer1"
     inkscape:label="Layer 1"
     inkscape:groupmode="layer">
    <g
       id="g5022"
       transform="matrix(2.454499e-2,0,0,2.086758e-2,45.89369,40.09109)">
      <rect
         y="-150.69685"
         x="-1559.2523"
         height="478.35718"
         width="1339.6335"
         id="rect4173"
         style="opacity:0.40206185;color:black;fill:url(#linearGradient5027);fill-opacity:1;fill-rule:nonzero;stroke:none;stroke-width:1;stroke-linecap:round;stroke-linejoin:miter;marker:none;marker-start:none;marker-mid:none;marker-end:none;stroke-miterlimit:4;stroke-dasharray:none;stroke-dashoffset:0;stroke-opacity:1;visibility:visible;display:inline;overflow:visible" />
      <path
         sodipodi:nodetypes="cccc"
         id="path5058"
         d="M -219.61876,-150.68038 C -219.61876,-150.68038 -219.61876,327.65041 -219.61876,327.65041 C -76.744594,328.55086 125.78146,220.48075 125.78138,88.454235 C 125.78138,-43.572302 -33.655436,-150.68036 -219.61876,-150.68038 z "
         style="opacity:0.40206185;color:black;fill:url(#radialGradient5029);fill-opacity:1;fill-rule:nonzero;stroke:none;stroke-width:1;stroke-linecap:round;stroke-linejoin:miter;marker:none;marker-start:none;marker-mid:none;marker-end:none;stroke-miterlimit:4;stroke-dasharray:none;stroke-dashoffset:0;stroke-opacity:1;visibility:visible;display:inline;overflow:visible" />
      <path
         style="opacity:0.40206185;color:black;fill:url(#radialGradient5031);fill-opacity:1;fill-rule:nonzero;stroke:none;stroke-width:1;stroke-linecap:round;stroke-linejoin:miter;marker:none;marker-start:none;marker-mid:none;marker-end:none;stroke-miterlimit:4;stroke-dasharray:none;stroke-dashoffset:0;stroke-opacity:1;visibility:visible;display:inline;overflow:visible"
         d="M -1559.2523,-150.68038 C -1559.2523,-150.68038 -1559.2523,327.65041 -1559.2523,327.65041 C -1702.1265,328.55086 -1904.6525,220.48075 -1904.6525,88.454235 C -1904.6525,-43.572302 -1745.2157,-150.68036 -1559.2523,-150.68038 z "
         id="path5018"
         sodipodi:nodetypes="cccc" />
    </g>
    <rect
       style="opacity:1;fill:url(#linearGradient2212);fill-opacity:1;fill-rule:evenodd;stroke:url(#linearGradient2220);stroke-width:0.9999997;stroke-linecap:round;stroke-linejoin:round;stroke-miterlimit:4;stroke-dasharray:none;stroke-dashoffset:0;stroke-opacity:1"
       id="rect1316"
       width="44.759838"
       height="41.701817"
       x="1.6199486"
       y="1.6600797"
       rx="4.5659914"
       ry="4.5659928" />
    <rect
       style="fill:url(#radialGradient2229);fill-opacity:1;fill-rule:evenodd;stroke:#173562;stroke-width:0.99999981999999998;stroke-linecap:round;stroke-linejoin:round;stroke-miterlimit:4;stroke-opacity:1;stroke-dasharray:none;stroke-dashoffset:0"
       id="rect1314"
       width="37.177864"
       height="33.639175"
       x="5.4052019"
       y="5.481554"
       rx="1.6946707"
       ry="1.6946709" />
    <rect
       style="opacity:1;fill:none;fill-opacity:1;fill-rule:evenodd;stroke:url(#linearGradient2244);stroke-width:0.99999982;stroke-linecap:round;stroke-linejoin:round;stroke-miterlimit:4;stroke-dasharray:none;stroke-dashoffset:0;stroke-opacity:1"
       id="rect2232"
       width="42.894741"
       height="39.646549"
       x="2.553669"
       y="2.6544337"
       rx="4.1303334"
       ry="4.1303344" />
    <rect
       ry="2.5696716"
       rx="2.5696716"
       y="4.635767"
       x="4.3192058"
       height="35.463345"
       width="39.349869"
       id="rect2221"
       style="opacity:0.57386361;fill:none;stroke:url(#linearGradient2231);stroke-width:1;stroke-linecap:round;stroke-linejoin:round;stroke-miterlimit:4;stroke-opacity:1;stroke-dasharray:none;stroke-dashoffset:0" />
    <g
       transform="matrix(0.22993013,0,0,0.22993013,-16.769193,-132.22292)"
       id="g3935">
      <g
         id="g4336"
         transform="matrix(0.64761911,0,0,0.64761911,96.333323,69.203781)">
        <path
           style="fill:#a40000;fill-opacity:1;fill-rule:nonzero;stroke:none"
           d="m 125,839.36218 c -27.614238,0 -50,8.05888 -50,18 l 0,10.40625 0,10 0,10 0,10 0,1.25 -0.125,0 0,1 C 59.59868,905.5103 50,913.49962 50,922.36218 l 0,10 0,10 0,10 0,10 0,10 0,10 0,10 c 0,16.56852 33.578644,30.00002 75,30.00002 41.42136,0 75,-13.4315 75,-30.00002 l 0,-10 0,-10 0,-10 0,-10 0,-10 0,-10 0,-10 c 0,-8.88567 -9.65424,-16.88176 -25,-22.375 l 0,-0.625 0,-4.75 0,-7.25 0,-10 0,-10 0,-10 c 0,-9.94112 -22.38576,-18 -50,-18 z"
           id="path9518-1"
           inkscape:connector-curvature="0" />
        <path
           style="fill:#fce94f;fill-opacity:1;fill-rule:nonzero;stroke:none"
           d="m 75,857.36218 0,1.15625 c 0,-0.0755 0.0487,-0.1474 0.0625,-0.21875 -0.003,-0.0204 0.003,-0.0421 0,-0.0625 C 75.0248,857.9505 75,857.65222 75,857.36218 z m 100,0 c 0,9.94113 -22.38576,18 -50,18 -7.11306,0 -13.87401,-0.53614 -20,-1.5 l 0,19.59375 0,7.96875 c -11.86869,1.29726 -22.21227,3.73234 -30,6.90625 l 0,-9.3125 -0.125,0 0.0625,9.34375 c -9.30892,3.80609 -14.9375,8.67218 -14.9375,14 0,12.15026 29.10149,22 65,22 15.0965,0 28.96637,-1.76513 40,-4.6875 l 0,8.0625 0,70.00002 c 21.02148,-5.3151 35,-14.6919 35,-25.37502 l 0,-10 0,-10 0,-10 0,-10 0,-10 0,-10 0,-10 c 0,-8.88567 -9.65424,-16.88176 -25,-22.375 l 0,-0.625 0,-4.75 0,-7.25 0,-10 0,-9.59375 0,-0.40625 0,-10 z m -107.5,45.75 c -0.45766,0.21844 -0.90153,0.43258 -1.34375,0.65625 0.43699,-0.2207 0.8917,-0.44064 1.34375,-0.65625 z m -3.9375,2.0625 c -0.48921,0.27922 -0.97175,0.55767 -1.4375,0.84375 0.46556,-0.28543 0.94854,-0.56517 1.4375,-0.84375 z m -13.0625,13.75 c -0.08,0.27984 -0.15816,0.56163 -0.21875,0.84375 0.061,-0.28532 0.13791,-0.56077 0.21875,-0.84375 z m 114.25,28.875 c -1.30884,0.32811 -2.63897,0.64143 -4,0.9375 1.36596,-0.29681 2.68697,-0.60839 4,-0.9375 z m -9.46875,2 c -1.36476,0.24166 -2.75028,0.47805 -4.15625,0.6875 1.40911,-0.20958 2.78862,-0.44559 4.15625,-0.6875 z"
           id="path3796"
           inkscape:connector-curvature="0" />
      </g>
    </g>
    <path
       style="opacity:0.43181817;fill:url(#linearGradient1340);fill-opacity:1;fill-rule:evenodd;stroke:none;stroke-width:1;stroke-linecap:round;stroke-linejoin:round;stroke-miterlimit:4;stroke-dasharray:none;stroke-dashoffset:0;stroke-opacity:1"
       d="M 6.84375,6.96875 L 6.84375,15.795073 C 10.513653,16.483179 14.582567,16.875 18.875,16.875 C 27.810295,16.875 35.812258,15.21019 41.15625,12.596829 L 41.15625,6.96875 L 6.84375,6.96875 z "
       id="rect2178"
       sodipodi:nodetypes="ccsccc" />
  </g>
</svg>
