<?xml version="1.0" encoding="utf-8" standalone="no"?>
<!DOCTYPE svg PUBLIC "-//W3C//DTD SVG 1.1//EN"
  "http://www.w3.org/Graphics/SVG/1.1/DTD/svg11.dtd">
<!-- Created with matplotlib (http://matplotlib.org/) -->
<svg height="441pt" version="1.1" viewBox="0 0 585 441" width="585pt" xmlns="http://www.w3.org/2000/svg" xmlns:xlink="http://www.w3.org/1999/xlink">
 <defs>
  <style type="text/css">
*{stroke-linecap:butt;stroke-linejoin:round;}
  </style>
 </defs>
 <g id="figure_1">
  <g id="patch_1">
   <path d="
M0 441
L585 441
L585 0
L0 0
z
" style="fill:#ffffff;"/>
  </g>
  <g id="axes_1">
   <g id="patch_2">
    <path d="
M62.0801 355.92
L575.25 355.92
L575.25 85.0802
L62.0801 85.0802
z
" style="fill:#ffffff;"/>
   </g>
   <g id="patch_3">
    <path clip-path="url(#p4f530fa14d)" d="
M92.5084 90.2886
C97.9609 90.2886 103.191 92.4549 107.046 96.3104
C110.902 100.166 113.068 105.396 113.068 110.848
C113.068 116.301 110.902 121.531 107.046 125.386
C103.191 129.242 97.9609 131.408 92.5084 131.408
C87.0559 131.408 81.826 129.242 77.9705 125.386
C74.115 121.531 71.9487 116.301 71.9487 110.848
C71.9487 105.396 74.115 100.166 77.9705 96.3104
C81.826 92.4549 87.0559 90.2886 92.5084 90.2886
z
" style="fill:none;stroke:#000000;stroke-linejoin:miter;"/>
   </g>
   <g id="patch_4">
    <path clip-path="url(#p4f530fa14d)" d="
M106.215 145.114
C111.667 145.114 116.897 147.281 120.753 151.136
C124.608 154.992 126.775 160.222 126.775 165.674
C126.775 171.127 124.608 176.357 120.753 180.212
C116.897 184.068 111.667 186.234 106.215 186.234
C100.762 186.234 95.5325 184.068 91.677 180.212
C87.8215 176.357 85.6552 171.127 85.6552 165.674
C85.6552 160.222 87.8215 154.992 91.677 151.136
C95.5325 147.281 100.762 145.114 106.215 145.114
z
" style="fill:none;stroke:#000000;stroke-linejoin:miter;"/>
   </g>
   <g id="patch_5">
    <path clip-path="url(#p4f530fa14d)" d="
M119.921 199.94
C125.374 199.94 130.604 202.107 134.459 205.962
C138.315 209.818 140.481 215.048 140.481 220.5
C140.481 225.952 138.315 231.182 134.459 235.038
C130.604 238.893 125.374 241.06 119.921 241.06
C114.469 241.06 109.239 238.893 105.383 235.038
C101.528 231.182 99.3617 225.952 99.3617 220.5
C99.3617 215.048 101.528 209.818 105.383 205.962
C109.239 202.107 114.469 199.94 119.921 199.94
z
" style="fill:none;stroke:#000000;stroke-linejoin:miter;"/>
   </g>
   <g id="patch_6">
    <path clip-path="url(#p4f530fa14d)" d="
M133.628 254.766
C139.08 254.766 144.31 256.932 148.166 260.788
C152.021 264.643 154.188 269.873 154.188 275.326
C154.188 280.778 152.021 286.008 148.166 289.864
C144.31 293.719 139.08 295.886 133.628 295.886
C128.175 295.886 122.945 293.719 119.09 289.864
C115.234 286.008 113.068 280.778 113.068 275.326
C113.068 269.873 115.234 264.643 119.09 260.788
C122.945 256.932 128.175 254.766 133.628 254.766
z
" style="fill:none;stroke:#000000;stroke-linejoin:miter;"/>
   </g>
   <g id="patch_7">
    <path clip-path="url(#p4f530fa14d)" d="
M147.334 309.592
C152.787 309.592 158.017 311.758 161.872 315.614
C165.728 319.469 167.894 324.699 167.894 330.152
C167.894 335.604 165.728 340.834 161.872 344.69
C158.017 348.545 152.787 350.711 147.334 350.711
C141.882 350.711 136.652 348.545 132.796 344.69
C128.941 340.834 126.775 335.604 126.775 330.152
C126.775 324.699 128.941 319.469 132.796 315.614
C136.652 311.758 141.882 309.592 147.334 309.592
z
" style="fill:none;stroke:#000000;stroke-linejoin:miter;"/>
   </g>
   <g id="patch_8">
    <path clip-path="url(#p4f530fa14d)" d="
M161.041 90.2886
C166.493 90.2886 171.723 92.4549 175.579 96.3104
C179.434 100.166 181.6 105.396 181.6 110.848
C181.6 116.301 179.434 121.531 175.579 125.386
C171.723 129.242 166.493 131.408 161.041 131.408
C155.588 131.408 150.358 129.242 146.503 125.386
C142.647 121.531 140.481 116.301 140.481 110.848
C140.481 105.396 142.647 100.166 146.503 96.3104
C150.358 92.4549 155.588 90.2886 161.041 90.2886
z
" style="fill:none;stroke:#000000;stroke-linejoin:miter;"/>
   </g>
   <g id="patch_9">
    <path clip-path="url(#p4f530fa14d)" d="
M174.747 145.114
C180.2 145.114 185.43 147.281 189.285 151.136
C193.141 154.992 195.307 160.222 195.307 165.674
C195.307 171.127 193.141 176.357 189.285 180.212
C185.43 184.068 180.2 186.234 174.747 186.234
C169.295 186.234 164.065 184.068 160.209 180.212
C156.354 176.357 154.188 171.127 154.188 165.674
C154.188 160.222 156.354 154.992 160.209 151.136
C164.065 147.281 169.295 145.114 174.747 145.114
z
" style="fill:none;stroke:#000000;stroke-linejoin:miter;"/>
   </g>
   <g id="patch_10">
    <path clip-path="url(#p4f530fa14d)" d="
M188.454 199.94
C193.906 199.94 199.136 202.107 202.992 205.962
C206.847 209.818 209.013 215.048 209.013 220.5
C209.013 225.952 206.847 231.182 202.992 235.038
C199.136 238.893 193.906 241.06 188.454 241.06
C183.001 241.06 177.771 238.893 173.916 235.038
C170.06 231.182 167.894 225.952 167.894 220.5
C167.894 215.048 170.06 209.818 173.916 205.962
C177.771 202.107 183.001 199.94 188.454 199.94
z
" style="fill:none;stroke:#000000;stroke-linejoin:miter;"/>
   </g>
   <g id="patch_11">
    <path clip-path="url(#p4f530fa14d)" d="
M202.16 254.766
C207.613 254.766 212.843 256.932 216.698 260.788
C220.554 264.643 222.72 269.873 222.72 275.326
C222.72 280.778 220.554 286.008 216.698 289.864
C212.843 293.719 207.613 295.886 202.16 295.886
C196.708 295.886 191.478 293.719 187.622 289.864
C183.767 286.008 181.6 280.778 181.6 275.326
C181.6 269.873 183.767 264.643 187.622 260.788
C191.478 256.932 196.708 254.766 202.16 254.766
z
" style="fill:none;stroke:#000000;stroke-linejoin:miter;"/>
   </g>
   <g id="patch_12">
    <path clip-path="url(#p4f530fa14d)" d="
M215.867 309.592
C221.319 309.592 226.549 311.758 230.404 315.614
C234.26 319.469 236.426 324.699 236.426 330.152
C236.426 335.604 234.26 340.834 230.404 344.69
C226.549 348.545 221.319 350.711 215.867 350.711
C210.414 350.711 205.184 348.545 201.329 344.69
C197.473 340.834 195.307 335.604 195.307 330.152
C195.307 324.699 197.473 319.469 201.329 315.614
C205.184 311.758 210.414 309.592 215.867 309.592
z
" style="fill:none;stroke:#000000;stroke-linejoin:miter;"/>
   </g>
   <g id="patch_13">
    <path clip-path="url(#p4f530fa14d)" d="
M229.573 90.2886
C235.026 90.2886 240.255 92.4549 244.111 96.3104
C247.966 100.166 250.133 105.396 250.133 110.848
C250.133 116.301 247.966 121.531 244.111 125.386
C240.255 129.242 235.026 131.408 229.573 131.408
C224.121 131.408 218.891 129.242 215.035 125.386
C211.18 121.531 209.013 116.301 209.013 110.848
C209.013 105.396 211.18 100.166 215.035 96.3104
C218.891 92.4549 224.121 90.2886 229.573 90.2886
z
" style="fill:none;stroke:#000000;stroke-linejoin:miter;"/>
   </g>
   <g id="patch_14">
    <path clip-path="url(#p4f530fa14d)" d="
M243.28 145.114
C248.732 145.114 253.962 147.281 257.817 151.136
C261.673 154.992 263.839 160.222 263.839 165.674
C263.839 171.127 261.673 176.357 257.817 180.212
C253.962 184.068 248.732 186.234 243.28 186.234
C237.827 186.234 232.597 184.068 228.742 180.212
C224.886 176.357 222.72 171.127 222.72 165.674
C222.72 160.222 224.886 154.992 228.742 151.136
C232.597 147.281 237.827 145.114 243.28 145.114
z
" style="fill:none;stroke:#000000;stroke-linejoin:miter;"/>
   </g>
   <g id="patch_15">
    <path clip-path="url(#p4f530fa14d)" d="
M270.692 254.766
C276.145 254.766 281.375 256.932 285.23 260.788
C289.086 264.643 291.252 269.873 291.252 275.326
C291.252 280.778 289.086 286.008 285.23 289.864
C281.375 293.719 276.145 295.886 270.692 295.886
C265.24 295.886 260.01 293.719 256.155 289.864
C252.299 286.008 250.133 280.778 250.133 275.326
C250.133 269.873 252.299 264.643 256.155 260.788
C260.01 256.932 265.24 254.766 270.692 254.766
z
" style="fill:none;stroke:#000000;stroke-linejoin:miter;"/>
   </g>
   <g id="patch_16">
    <path clip-path="url(#p4f530fa14d)" d="
M284.399 309.592
C289.851 309.592 295.081 311.758 298.937 315.614
C302.792 319.469 304.959 324.699 304.959 330.152
C304.959 335.604 302.792 340.834 298.937 344.69
C295.081 348.545 289.851 350.711 284.399 350.711
C278.946 350.711 273.716 348.545 269.861 344.69
C266.005 340.834 263.839 335.604 263.839 330.152
C263.839 324.699 266.005 319.469 269.861 315.614
C273.716 311.758 278.946 309.592 284.399 309.592
z
" style="fill:none;stroke:#000000;stroke-linejoin:miter;"/>
   </g>
   <g id="patch_17">
    <path clip-path="url(#p4f530fa14d)" d="
M298.105 90.2886
C303.558 90.2886 308.788 92.4549 312.643 96.3104
C316.499 100.166 318.665 105.396 318.665 110.848
C318.665 116.301 316.499 121.531 312.643 125.386
C308.788 129.242 303.558 131.408 298.105 131.408
C292.653 131.408 287.423 129.242 283.567 125.386
C279.712 121.531 277.546 116.301 277.546 110.848
C277.546 105.396 279.712 100.166 283.567 96.3104
C287.423 92.4549 292.653 90.2886 298.105 90.2886
z
" style="fill:none;stroke:#000000;stroke-linejoin:miter;"/>
   </g>
   <g id="patch_18">
    <path clip-path="url(#p4f530fa14d)" d="
M311.812 145.114
C317.264 145.114 322.494 147.281 326.35 151.136
C330.205 154.992 332.372 160.222 332.372 165.674
C332.372 171.127 330.205 176.357 326.35 180.212
C322.494 184.068 317.264 186.234 311.812 186.234
C306.359 186.234 301.129 184.068 297.274 180.212
C293.418 176.357 291.252 171.127 291.252 165.674
C291.252 160.222 293.418 154.992 297.274 151.136
C301.129 147.281 306.359 145.114 311.812 145.114
z
" style="fill:none;stroke:#000000;stroke-linejoin:miter;"/>
   </g>
   <g id="patch_19">
    <path clip-path="url(#p4f530fa14d)" d="
M325.518 199.94
C330.971 199.94 336.201 202.107 340.056 205.962
C343.912 209.818 346.078 215.048 346.078 220.5
C346.078 225.952 343.912 231.182 340.056 235.038
C336.201 238.893 330.971 241.06 325.518 241.06
C320.066 241.06 314.836 238.893 310.98 235.038
C307.125 231.182 304.959 225.952 304.959 220.5
C304.959 215.048 307.125 209.818 310.98 205.962
C314.836 202.107 320.066 199.94 325.518 199.94
z
" style="fill:none;stroke:#000000;stroke-linejoin:miter;"/>
   </g>
   <g id="patch_20">
    <path clip-path="url(#p4f530fa14d)" d="
M339.225 254.766
C344.677 254.766 349.907 256.932 353.763 260.788
C357.618 264.643 359.784 269.873 359.784 275.326
C359.784 280.778 357.618 286.008 353.763 289.864
C349.907 293.719 344.677 295.886 339.225 295.886
C333.772 295.886 328.542 293.719 324.687 289.864
C320.831 286.008 318.665 280.778 318.665 275.326
C318.665 269.873 320.831 264.643 324.687 260.788
C328.542 256.932 333.772 254.766 339.225 254.766
z
" style="fill:none;stroke:#000000;stroke-linejoin:miter;"/>
   </g>
   <g id="patch_21">
    <path clip-path="url(#p4f530fa14d)" d="
M352.931 309.592
C358.384 309.592 363.614 311.758 367.469 315.614
C371.325 319.469 373.491 324.699 373.491 330.152
C373.491 335.604 371.325 340.834 367.469 344.69
C363.614 348.545 358.384 350.711 352.931 350.711
C347.479 350.711 342.249 348.545 338.393 344.69
C334.538 340.834 332.372 335.604 332.372 330.152
C332.372 324.699 334.538 319.469 338.393 315.614
C342.249 311.758 347.479 309.592 352.931 309.592
z
" style="fill:none;stroke:#000000;stroke-linejoin:miter;"/>
   </g>
   <g id="patch_22">
    <path clip-path="url(#p4f530fa14d)" d="
M366.638 90.2886
C372.09 90.2886 377.32 92.4549 381.176 96.3104
C385.031 100.166 387.197 105.396 387.197 110.848
C387.197 116.301 385.031 121.531 381.176 125.386
C377.32 129.242 372.09 131.408 366.638 131.408
C361.185 131.408 355.955 129.242 352.1 125.386
C348.244 121.531 346.078 116.301 346.078 110.848
C346.078 105.396 348.244 100.166 352.1 96.3104
C355.955 92.4549 361.185 90.2886 366.638 90.2886
z
" style="fill:none;stroke:#000000;stroke-linejoin:miter;"/>
   </g>
   <g id="patch_23">
    <path clip-path="url(#p4f530fa14d)" d="
M380.344 145.114
C385.797 145.114 391.027 147.281 394.882 151.136
C398.738 154.992 400.904 160.222 400.904 165.674
C400.904 171.127 398.738 176.357 394.882 180.212
C391.027 184.068 385.797 186.234 380.344 186.234
C374.892 186.234 369.662 184.068 365.806 180.212
C361.951 176.357 359.784 171.127 359.784 165.674
C359.784 160.222 361.951 154.992 365.806 151.136
C369.662 147.281 374.892 145.114 380.344 145.114
z
" style="fill:none;stroke:#000000;stroke-linejoin:miter;"/>
   </g>
   <g id="patch_24">
    <path clip-path="url(#p4f530fa14d)" d="
M394.051 199.94
C399.503 199.94 404.733 202.107 408.588 205.962
C412.444 209.818 414.61 215.048 414.61 220.5
C414.61 225.952 412.444 231.182 408.588 235.038
C404.733 238.893 399.503 241.06 394.051 241.06
C388.598 241.06 383.368 238.893 379.513 235.038
C375.657 231.182 373.491 225.952 373.491 220.5
C373.491 215.048 375.657 209.818 379.513 205.962
C383.368 202.107 388.598 199.94 394.051 199.94
z
" style="fill:none;stroke:#000000;stroke-linejoin:miter;"/>
   </g>
   <g id="patch_25">
    <path clip-path="url(#p4f530fa14d)" d="
M407.757 254.766
C413.21 254.766 418.439 256.932 422.295 260.788
C426.15 264.643 428.317 269.873 428.317 275.326
C428.317 280.778 426.15 286.008 422.295 289.864
C418.439 293.719 413.21 295.886 407.757 295.886
C402.305 295.886 397.075 293.719 393.219 289.864
C389.364 286.008 387.197 280.778 387.197 275.326
C387.197 269.873 389.364 264.643 393.219 260.788
C397.075 256.932 402.305 254.766 407.757 254.766
z
" style="fill:none;stroke:#000000;stroke-linejoin:miter;"/>
   </g>
   <g id="patch_26">
    <path clip-path="url(#p4f530fa14d)" d="
M421.464 309.592
C426.916 309.592 432.146 311.758 436.001 315.614
C439.857 319.469 442.023 324.699 442.023 330.152
C442.023 335.604 439.857 340.834 436.001 344.69
C432.146 348.545 426.916 350.711 421.464 350.711
C416.011 350.711 410.781 348.545 406.926 344.69
C403.07 340.834 400.904 335.604 400.904 330.152
C400.904 324.699 403.07 319.469 406.926 315.614
C410.781 311.758 416.011 309.592 421.464 309.592
z
" style="fill:none;stroke:#000000;stroke-linejoin:miter;"/>
   </g>
   <g id="patch_27">
    <path clip-path="url(#p4f530fa14d)" d="
M435.17 90.2886
C440.622 90.2886 445.852 92.4549 449.708 96.3104
C453.563 100.166 455.73 105.396 455.73 110.848
C455.73 116.301 453.563 121.531 449.708 125.386
C445.852 129.242 440.622 131.408 435.17 131.408
C429.717 131.408 424.488 129.242 420.632 125.386
C416.777 121.531 414.61 116.301 414.61 110.848
C414.61 105.396 416.777 100.166 420.632 96.3104
C424.488 92.4549 429.717 90.2886 435.17 90.2886
z
" style="fill:none;stroke:#000000;stroke-linejoin:miter;"/>
   </g>
   <g id="patch_28">
    <path clip-path="url(#p4f530fa14d)" d="
M448.876 145.114
C454.329 145.114 459.559 147.281 463.414 151.136
C467.27 154.992 469.436 160.222 469.436 165.674
C469.436 171.127 467.27 176.357 463.414 180.212
C459.559 184.068 454.329 186.234 448.876 186.234
C443.424 186.234 438.194 184.068 434.339 180.212
C430.483 176.357 428.317 171.127 428.317 165.674
C428.317 160.222 430.483 154.992 434.339 151.136
C438.194 147.281 443.424 145.114 448.876 145.114
z
" style="fill:none;stroke:#000000;stroke-linejoin:miter;"/>
   </g>
   <g id="patch_29">
    <path clip-path="url(#p4f530fa14d)" d="
M462.583 199.94
C468.035 199.94 473.265 202.107 477.121 205.962
C480.976 209.818 483.143 215.048 483.143 220.5
C483.143 225.952 480.976 231.182 477.121 235.038
C473.265 238.893 468.035 241.06 462.583 241.06
C457.13 241.06 451.9 238.893 448.045 235.038
C444.189 231.182 442.023 225.952 442.023 220.5
C442.023 215.048 444.189 209.818 448.045 205.962
C451.9 202.107 457.13 199.94 462.583 199.94
z
" style="fill:none;stroke:#000000;stroke-linejoin:miter;"/>
   </g>
   <g id="patch_30">
    <path clip-path="url(#p4f530fa14d)" d="
M476.289 254.766
C481.742 254.766 486.972 256.932 490.827 260.788
C494.683 264.643 496.849 269.873 496.849 275.326
C496.849 280.778 494.683 286.008 490.827 289.864
C486.972 293.719 481.742 295.886 476.289 295.886
C470.837 295.886 465.607 293.719 461.751 289.864
C457.896 286.008 455.73 280.778 455.73 275.326
C455.73 269.873 457.896 264.643 461.751 260.788
C465.607 256.932 470.837 254.766 476.289 254.766
z
" style="fill:none;stroke:#000000;stroke-linejoin:miter;"/>
   </g>
   <g id="patch_31">
    <path clip-path="url(#p4f530fa14d)" d="
M489.996 309.592
C495.448 309.592 500.678 311.758 504.534 315.614
C508.389 319.469 510.556 324.699 510.556 330.152
C510.556 335.604 508.389 340.834 504.534 344.69
C500.678 348.545 495.448 350.711 489.996 350.711
C484.543 350.711 479.313 348.545 475.458 344.69
C471.602 340.834 469.436 335.604 469.436 330.152
C469.436 324.699 471.602 319.469 475.458 315.614
C479.313 311.758 484.543 309.592 489.996 309.592
z
" style="fill:none;stroke:#000000;stroke-linejoin:miter;"/>
   </g>
   <g id="patch_32">
    <path clip-path="url(#p4f530fa14d)" d="
M544.822 254.766
C550.274 254.766 555.504 256.932 559.36 260.788
C563.215 264.643 565.381 269.873 565.381 275.326
C565.381 280.778 563.215 286.008 559.36 289.864
C555.504 293.719 550.274 295.886 544.822 295.886
C539.369 295.886 534.139 293.719 530.284 289.864
C526.428 286.008 524.262 280.778 524.262 275.326
C524.262 269.873 526.428 264.643 530.284 260.788
C534.139 256.932 539.369 254.766 544.822 254.766
z
" style="fill:none;stroke:#000000;stroke-linejoin:miter;"/>
   </g>
   <g id="patch_33">
    <path d="
M62.0801 85.0802
L575.25 85.0802" style="fill:none;stroke:#000000;stroke-linecap:square;stroke-linejoin:miter;"/>
   </g>
   <g id="patch_34">
    <path d="
M575.25 355.92
L575.25 85.0802" style="fill:none;stroke:#000000;stroke-linecap:square;stroke-linejoin:miter;"/>
   </g>
   <g id="patch_35">
    <path d="
M62.0801 355.92
L575.25 355.92" style="fill:none;stroke:#000000;stroke-linecap:square;stroke-linejoin:miter;"/>
   </g>
   <g id="patch_36">
    <path d="
M62.0801 355.92
L62.0801 85.0802" style="fill:none;stroke:#000000;stroke-linecap:square;stroke-linejoin:miter;"/>
   </g>
   <g id="matplotlib.axis_1">
    <g id="xtick_1">
     <g id="line2d_1">
      <defs>
       <path d="
M0 0
L0 -4" id="m93b0483c22" style="stroke:#000000;stroke-width:0.5;"/>
      </defs>
      <g>
       <use style="stroke:#000000;stroke-width:0.5;" x="119.921346029" xlink:href="#m93b0483c22" y="355.919840495"/>
      </g>
     </g>
     <g id="line2d_2">
      <defs>
       <path d="
M0 0
L0 4" id="m741efc42ff" style="stroke:#000000;stroke-width:0.5;"/>
      </defs>
      <g>
       <use style="stroke:#000000;stroke-width:0.5;" x="119.921346029" xlink:href="#m741efc42ff" y="85.0801595052"/>
      </g>
     </g>
     <g id="text_1">
      <!-- −2 -->
      <defs>
       <path d="
M19.1875 8.29688
L53.6094 8.29688
L53.6094 0
L7.32812 0
L7.32812 8.29688
Q12.9375 14.1094 22.625 23.8906
Q32.3281 33.6875 34.8125 36.5312
Q39.5469 41.8438 41.4219 45.5312
Q43.3125 49.2188 43.3125 52.7812
Q43.3125 58.5938 39.2344 62.25
Q35.1562 65.9219 28.6094 65.9219
Q23.9688 65.9219 18.8125 64.3125
Q13.6719 62.7031 7.8125 59.4219
L7.8125 69.3906
Q13.7656 71.7812 18.9375 73
Q24.125 74.2188 28.4219 74.2188
Q39.75 74.2188 46.4844 68.5469
Q53.2188 62.8906 53.2188 53.4219
Q53.2188 48.9219 51.5312 44.8906
Q49.8594 40.875 45.4062 35.4062
Q44.1875 33.9844 37.6406 27.2188
Q31.1094 20.4531 19.1875 8.29688" id="DejaVuSans-32"/>
       <path d="
M10.5938 35.5
L73.1875 35.5
L73.1875 27.2031
L10.5938 27.2031
z
" id="DejaVuSans-2212"/>
      </defs>
      <g transform="translate(112.312596029 369.037965495)scale(0.12 -0.12)">
       <use xlink:href="#DejaVuSans-2212"/>
       <use x="83.7890625" xlink:href="#DejaVuSans-32"/>
      </g>
     </g>
    </g>
    <g id="xtick_2">
     <g id="line2d_3">
      <g>
       <use style="stroke:#000000;stroke-width:0.5;" x="188.453653971" xlink:href="#m93b0483c22" y="355.919840495"/>
      </g>
     </g>
     <g id="line2d_4">
      <g>
       <use style="stroke:#000000;stroke-width:0.5;" x="188.453653971" xlink:href="#m741efc42ff" y="85.0801595052"/>
      </g>
     </g>
     <g id="text_2">
      <!-- −1 -->
      <defs>
       <path d="
M12.4062 8.29688
L28.5156 8.29688
L28.5156 63.9219
L10.9844 60.4062
L10.9844 69.3906
L28.4219 72.9062
L38.2812 72.9062
L38.2812 8.29688
L54.3906 8.29688
L54.3906 0
L12.4062 0
z
" id="DejaVuSans-31"/>
      </defs>
      <g transform="translate(180.798028971 369.037965495)scale(0.12 -0.12)">
       <use xlink:href="#DejaVuSans-2212"/>
       <use x="83.7890625" xlink:href="#DejaVuSans-31"/>
      </g>
     </g>
    </g>
    <g id="xtick_3">
     <g id="line2d_5">
      <g>
       <use style="stroke:#000000;stroke-width:0.5;" x="256.985961914" xlink:href="#m93b0483c22" y="355.919840495"/>
      </g>
     </g>
     <g id="line2d_6">
      <g>
       <use style="stroke:#000000;stroke-width:0.5;" x="256.985961914" xlink:href="#m741efc42ff" y="85.0801595052"/>
      </g>
     </g>
     <g id="text_3">
      <!-- 0 -->
      <defs>
       <path d="
M31.7812 66.4062
Q24.1719 66.4062 20.3281 58.9062
Q16.5 51.4219 16.5 36.375
Q16.5 21.3906 20.3281 13.8906
Q24.1719 6.39062 31.7812 6.39062
Q39.4531 6.39062 43.2812 13.8906
Q47.125 21.3906 47.125 36.375
Q47.125 51.4219 43.2812 58.9062
Q39.4531 66.4062 31.7812 66.4062
M31.7812 74.2188
Q44.0469 74.2188 50.5156 64.5156
Q56.9844 54.8281 56.9844 36.375
Q56.9844 17.9688 50.5156 8.26562
Q44.0469 -1.42188 31.7812 -1.42188
Q19.5312 -1.42188 13.0625 8.26562
Q6.59375 17.9688 6.59375 36.375
Q6.59375 54.8281 13.0625 64.5156
Q19.5312 74.2188 31.7812 74.2188" id="DejaVuSans-30"/>
      </defs>
      <g transform="translate(253.962524414 369.037965495)scale(0.12 -0.12)">
       <use xlink:href="#DejaVuSans-30"/>
      </g>
     </g>
    </g>
    <g id="xtick_4">
     <g id="line2d_7">
      <g>
       <use style="stroke:#000000;stroke-width:0.5;" x="325.518269857" xlink:href="#m93b0483c22" y="355.919840495"/>
      </g>
     </g>
     <g id="line2d_8">
      <g>
       <use style="stroke:#000000;stroke-width:0.5;" x="325.518269857" xlink:href="#m741efc42ff" y="85.0801595052"/>
      </g>
     </g>
     <g id="text_4">
      <!-- 1 -->
      <g transform="translate(322.913894857 369.037965495)scale(0.12 -0.12)">
       <use xlink:href="#DejaVuSans-31"/>
      </g>
     </g>
    </g>
    <g id="xtick_5">
     <g id="line2d_9">
      <g>
       <use style="stroke:#000000;stroke-width:0.5;" x="394.050577799" xlink:href="#m93b0483c22" y="355.919840495"/>
      </g>
     </g>
     <g id="line2d_10">
      <g>
       <use style="stroke:#000000;stroke-width:0.5;" x="394.050577799" xlink:href="#m741efc42ff" y="85.0801595052"/>
      </g>
     </g>
     <g id="text_5">
      <!-- 2 -->
      <g transform="translate(391.273702799 369.037965495)scale(0.12 -0.12)">
       <use xlink:href="#DejaVuSans-32"/>
      </g>
     </g>
    </g>
    <g id="xtick_6">
     <g id="line2d_11">
      <g>
       <use style="stroke:#000000;stroke-width:0.5;" x="462.582885742" xlink:href="#m93b0483c22" y="355.919840495"/>
      </g>
     </g>
     <g id="line2d_12">
      <g>
       <use style="stroke:#000000;stroke-width:0.5;" x="462.582885742" xlink:href="#m741efc42ff" y="85.0801595052"/>
      </g>
     </g>
     <g id="text_6">
      <!-- 3 -->
      <defs>
       <path d="
M40.5781 39.3125
Q47.6562 37.7969 51.625 33
Q55.6094 28.2188 55.6094 21.1875
Q55.6094 10.4062 48.1875 4.48438
Q40.7656 -1.42188 27.0938 -1.42188
Q22.5156 -1.42188 17.6562 -0.515625
Q12.7969 0.390625 7.625 2.20312
L7.625 11.7188
Q11.7188 9.32812 16.5938 8.10938
Q21.4844 6.89062 26.8125 6.89062
Q36.0781 6.89062 40.9375 10.5469
Q45.7969 14.2031 45.7969 21.1875
Q45.7969 27.6406 41.2812 31.2656
Q36.7656 34.9062 28.7188 34.9062
L20.2188 34.9062
L20.2188 43.0156
L29.1094 43.0156
Q36.375 43.0156 40.2344 45.9219
Q44.0938 48.8281 44.0938 54.2969
Q44.0938 59.9062 40.1094 62.9062
Q36.1406 65.9219 28.7188 65.9219
Q24.6562 65.9219 20.0156 65.0312
Q15.375 64.1562 9.8125 62.3125
L9.8125 71.0938
Q15.4375 72.6562 20.3438 73.4375
Q25.25 74.2188 29.5938 74.2188
Q40.8281 74.2188 47.3594 69.1094
Q53.9062 64.0156 53.9062 55.3281
Q53.9062 49.2656 50.4375 45.0938
Q46.9688 40.9219 40.5781 39.3125" id="DejaVuSans-33"/>
      </defs>
      <g transform="translate(459.703823242 369.037965495)scale(0.12 -0.12)">
       <use xlink:href="#DejaVuSans-33"/>
      </g>
     </g>
    </g>
    <g id="xtick_7">
     <g id="line2d_13">
      <g>
       <use style="stroke:#000000;stroke-width:0.5;" x="531.115193685" xlink:href="#m93b0483c22" y="355.919840495"/>
      </g>
     </g>
     <g id="line2d_14">
      <g>
       <use style="stroke:#000000;stroke-width:0.5;" x="531.115193685" xlink:href="#m741efc42ff" y="85.0801595052"/>
      </g>
     </g>
     <g id="text_7">
      <!-- 4 -->
      <defs>
       <path d="
M37.7969 64.3125
L12.8906 25.3906
L37.7969 25.3906
z

M35.2031 72.9062
L47.6094 72.9062
L47.6094 25.3906
L58.0156 25.3906
L58.0156 17.1875
L47.6094 17.1875
L47.6094 0
L37.7969 0
L37.7969 17.1875
L4.89062 17.1875
L4.89062 26.7031
z
" id="DejaVuSans-34"/>
      </defs>
      <g transform="translate(527.927693685 369.037965495)scale(0.12 -0.12)">
       <use xlink:href="#DejaVuSans-34"/>
      </g>
     </g>
    </g>
    <g id="text_8">
     <!-- $x$ [µm] -->
     <defs>
      <path d="
M8.5 -20.7969
L8.5 54.6875
L17.4844 54.6875
L17.4844 20.7031
Q17.4844 13.625 20.8438 10
Q24.2188 6.39062 30.8125 6.39062
Q38.0312 6.39062 41.6719 10.4844
Q45.3125 14.5938 45.3125 22.7969
L45.3125 54.6875
L54.2969 54.6875
L54.2969 12.5938
Q54.2969 9.67188 55.1406 8.28125
Q56 6.89062 57.8125 6.89062
Q58.25 6.89062 59.0312 7.15625
Q59.8125 7.42188 61.1875 8.01562
L61.1875 0.78125
Q59.1875 -0.34375 57.3906 -0.875
Q55.6094 -1.42188 53.9062 -1.42188
Q50.5312 -1.42188 48.5312 0.484375
Q46.5312 2.39062 45.7969 6.29688
Q43.3594 2.4375 39.8125 0.5
Q36.2812 -1.42188 31.5 -1.42188
Q26.5156 -1.42188 23.0156 0.484375
Q19.5312 2.39062 17.4844 6.20312
L17.4844 -20.7969
z
" id="DejaVuSans-b5"/>
      <path d="
M8.59375 75.9844
L29.2969 75.9844
L29.2969 69
L17.5781 69
L17.5781 -6.20312
L29.2969 -6.20312
L29.2969 -13.1875
L8.59375 -13.1875
z
" id="DejaVuSans-5b"/>
      <path d="
M52 44.1875
Q55.375 50.25 60.0625 53.125
Q64.75 56 71.0938 56
Q79.6406 56 84.2812 50.0156
Q88.9219 44.0469 88.9219 33.0156
L88.9219 0
L79.8906 0
L79.8906 32.7188
Q79.8906 40.5781 77.0938 44.375
Q74.3125 48.1875 68.6094 48.1875
Q61.625 48.1875 57.5625 43.5469
Q53.5156 38.9219 53.5156 30.9062
L53.5156 0
L44.4844 0
L44.4844 32.7188
Q44.4844 40.625 41.7031 44.4062
Q38.9219 48.1875 33.1094 48.1875
Q26.2188 48.1875 22.1562 43.5312
Q18.1094 38.875 18.1094 30.9062
L18.1094 0
L9.07812 0
L9.07812 54.6875
L18.1094 54.6875
L18.1094 46.1875
Q21.1875 51.2188 25.4844 53.6094
Q29.7812 56 35.6875 56
Q41.6562 56 45.8281 52.9688
Q50 49.9531 52 44.1875" id="DejaVuSans-6d"/>
      <path d="
M30.4219 75.9844
L30.4219 -13.1875
L9.71875 -13.1875
L9.71875 -6.20312
L21.3906 -6.20312
L21.3906 69
L9.71875 69
L9.71875 75.9844
z
" id="DejaVuSans-5d"/>
      <path id="DejaVuSans-20"/>
      <path d="
M7.8125 2.875
Q9.57812 1.51562 12.7969 1.51562
Q15.9219 1.51562 18.3125 4.51562
Q20.7031 7.51562 21.5781 11.0781
L26.125 28.8125
Q27.2031 33.6406 27.2031 35.4062
Q27.2031 37.8906 25.8125 39.75
Q24.4219 41.6094 21.9219 41.6094
Q18.75 41.6094 15.9688 39.625
Q13.1875 37.6406 11.2812 34.5938
Q9.375 31.5469 8.59375 28.4219
Q8.40625 27.7812 7.8125 27.7812
L6.59375 27.7812
Q5.8125 27.7812 5.8125 28.7188
L5.8125 29
Q6.78125 32.7188 9.125 36.25
Q11.4688 39.7969 14.8594 41.9844
Q18.2656 44.1875 22.125 44.1875
Q25.7812 44.1875 28.7344 42.2344
Q31.6875 40.2812 32.9062 36.9219
Q34.625 39.9844 37.2812 42.0781
Q39.9375 44.1875 43.1094 44.1875
Q45.2656 44.1875 47.5 43.4219
Q49.75 42.6719 51.1719 41.1094
Q52.5938 39.5469 52.5938 37.2031
Q52.5938 34.6719 50.9531 32.8281
Q49.3125 31 46.7812 31
Q45.1719 31 44.0938 32.0312
Q43.0156 33.0625 43.0156 34.625
Q43.0156 36.7188 44.4531 38.2969
Q45.9062 39.8906 47.9062 40.1875
Q46.0938 41.6094 42.9219 41.6094
Q39.7031 41.6094 37.3281 38.625
Q34.9688 35.6406 33.9844 31.9844
L29.5938 14.3125
Q28.5156 10.2969 28.5156 7.71875
Q28.5156 5.17188 29.9531 3.34375
Q31.3906 1.51562 33.7969 1.51562
Q38.4844 1.51562 42.1562 5.64062
Q45.8438 9.76562 47.0156 14.7031
Q47.2188 15.2812 47.7969 15.2812
L49.0312 15.2812
Q49.4219 15.2812 49.6562 15.0156
Q49.9062 14.75 49.9062 14.4062
Q49.9062 14.3125 49.8125 14.1094
Q48.3906 8.15625 43.8438 3.51562
Q39.3125 -1.125 33.5938 -1.125
Q29.9375 -1.125 26.9844 0.84375
Q24.0312 2.82812 22.7969 6.20312
Q21.2344 3.26562 18.4688 1.0625
Q15.7188 -1.125 12.5938 -1.125
Q10.4531 -1.125 8.17188 -0.359375
Q5.90625 0.390625 4.48438 1.95312
Q3.07812 3.51562 3.07812 5.90625
Q3.07812 8.25 4.70312 10.1719
Q6.34375 12.1094 8.79688 12.1094
Q10.4531 12.1094 11.5781 11.1094
Q12.7031 10.1094 12.7031 8.5
Q12.7031 6.39062 11.2969 4.82812
Q9.90625 3.26562 7.8125 2.875" id="Cmmi10-78"/>
     </defs>
     <g transform="translate(299.165039062 385.653590495)scale(0.12 -0.12)">
      <use transform="translate(0.0 0.015625)" xlink:href="#Cmmi10-78"/>
      <use transform="translate(57.080078125 0.015625)" xlink:href="#DejaVuSans-20"/>
      <use transform="translate(88.8671875 0.015625)" xlink:href="#DejaVuSans-5b"/>
      <use transform="translate(124.755859375 0.015625)" xlink:href="#DejaVuSans-b5"/>
      <use transform="translate(188.37890625 0.015625)" xlink:href="#DejaVuSans-6d"/>
      <use transform="translate(285.791015625 0.015625)" xlink:href="#DejaVuSans-5d"/>
     </g>
    </g>
   </g>
   <g id="matplotlib.axis_2">
    <g id="ytick_1">
     <g id="line2d_15">
      <defs>
       <path d="
M0 0
L4 0" id="m728421d6d4" style="stroke:#000000;stroke-width:0.5;"/>
      </defs>
      <g>
       <use style="stroke:#000000;stroke-width:0.5;" x="62.080078125" xlink:href="#m728421d6d4" y="117.701538086"/>
      </g>
     </g>
     <g id="line2d_16">
      <defs>
       <path d="
M0 0
L-4 0" id="mcb0005524f" style="stroke:#000000;stroke-width:0.5;"/>
      </defs>
      <g>
       <use style="stroke:#000000;stroke-width:0.5;" x="575.25" xlink:href="#mcb0005524f" y="117.701538086"/>
      </g>
     </g>
     <g id="text_9">
      <!-- −1.5 -->
      <defs>
       <path d="
M10.7969 72.9062
L49.5156 72.9062
L49.5156 64.5938
L19.8281 64.5938
L19.8281 46.7344
Q21.9688 47.4688 24.1094 47.8281
Q26.2656 48.1875 28.4219 48.1875
Q40.625 48.1875 47.75 41.5
Q54.8906 34.8125 54.8906 23.3906
Q54.8906 11.625 47.5625 5.09375
Q40.2344 -1.42188 26.9062 -1.42188
Q22.3125 -1.42188 17.5469 -0.640625
Q12.7969 0.140625 7.71875 1.70312
L7.71875 11.625
Q12.1094 9.23438 16.7969 8.0625
Q21.4844 6.89062 26.7031 6.89062
Q35.1562 6.89062 40.0781 11.3281
Q45.0156 15.7656 45.0156 23.3906
Q45.0156 31 40.0781 35.4375
Q35.1562 39.8906 26.7031 39.8906
Q22.75 39.8906 18.8125 39.0156
Q14.8906 38.1406 10.7969 36.2812
z
" id="DejaVuSans-35"/>
       <path d="
M10.6875 12.4062
L21 12.4062
L21 0
L10.6875 0
z
" id="DejaVuSans-2e"/>
      </defs>
      <g transform="translate(31.260078125 121.012788086)scale(0.12 -0.12)">
       <use xlink:href="#DejaVuSans-2212"/>
       <use x="83.7890625" xlink:href="#DejaVuSans-31"/>
       <use x="147.412109375" xlink:href="#DejaVuSans-2e"/>
       <use x="179.19921875" xlink:href="#DejaVuSans-35"/>
      </g>
     </g>
    </g>
    <g id="ytick_2">
     <g id="line2d_17">
      <g>
       <use style="stroke:#000000;stroke-width:0.5;" x="62.080078125" xlink:href="#m728421d6d4" y="151.967692057"/>
      </g>
     </g>
     <g id="line2d_18">
      <g>
       <use style="stroke:#000000;stroke-width:0.5;" x="575.25" xlink:href="#mcb0005524f" y="151.967692057"/>
      </g>
     </g>
     <g id="text_10">
      <!-- −1.0 -->
      <g transform="translate(31.008828125 155.278942057)scale(0.12 -0.12)">
       <use xlink:href="#DejaVuSans-2212"/>
       <use x="83.7890625" xlink:href="#DejaVuSans-31"/>
       <use x="147.412109375" xlink:href="#DejaVuSans-2e"/>
       <use x="179.19921875" xlink:href="#DejaVuSans-30"/>
      </g>
     </g>
    </g>
    <g id="ytick_3">
     <g id="line2d_19">
      <g>
       <use style="stroke:#000000;stroke-width:0.5;" x="62.080078125" xlink:href="#m728421d6d4" y="186.233846029"/>
      </g>
     </g>
     <g id="line2d_20">
      <g>
       <use style="stroke:#000000;stroke-width:0.5;" x="575.25" xlink:href="#mcb0005524f" y="186.233846029"/>
      </g>
     </g>
     <g id="text_11">
      <!-- −0.5 -->
      <g transform="translate(31.260078125 189.545096029)scale(0.12 -0.12)">
       <use xlink:href="#DejaVuSans-2212"/>
       <use x="83.7890625" xlink:href="#DejaVuSans-30"/>
       <use x="147.412109375" xlink:href="#DejaVuSans-2e"/>
       <use x="179.19921875" xlink:href="#DejaVuSans-35"/>
      </g>
     </g>
    </g>
    <g id="ytick_4">
     <g id="line2d_21">
      <g>
       <use style="stroke:#000000;stroke-width:0.5;" x="62.080078125" xlink:href="#m728421d6d4" y="220.5"/>
      </g>
     </g>
     <g id="line2d_22">
      <g>
       <use style="stroke:#000000;stroke-width:0.5;" x="575.25" xlink:href="#mcb0005524f" y="220.5"/>
      </g>
     </g>
     <g id="text_12">
      <!-- 0.0 -->
      <g transform="translate(40.584453125 223.81125)scale(0.12 -0.12)">
       <use xlink:href="#DejaVuSans-30"/>
       <use x="63.623046875" xlink:href="#DejaVuSans-2e"/>
       <use x="95.41015625" xlink:href="#DejaVuSans-30"/>
      </g>
     </g>
    </g>
    <g id="ytick_5">
     <g id="line2d_23">
      <g>
       <use style="stroke:#000000;stroke-width:0.5;" x="62.080078125" xlink:href="#m728421d6d4" y="254.766153971"/>
      </g>
     </g>
     <g id="line2d_24">
      <g>
       <use style="stroke:#000000;stroke-width:0.5;" x="575.25" xlink:href="#mcb0005524f" y="254.766153971"/>
      </g>
     </g>
     <g id="text_13">
      <!-- 0.5 -->
      <g transform="translate(40.835703125 258.077403971)scale(0.12 -0.12)">
       <use xlink:href="#DejaVuSans-30"/>
       <use x="63.623046875" xlink:href="#DejaVuSans-2e"/>
       <use x="95.41015625" xlink:href="#DejaVuSans-35"/>
      </g>
     </g>
    </g>
    <g id="ytick_6">
     <g id="line2d_25">
      <g>
       <use style="stroke:#000000;stroke-width:0.5;" x="62.080078125" xlink:href="#m728421d6d4" y="289.032307943"/>
      </g>
     </g>
     <g id="line2d_26">
      <g>
       <use style="stroke:#000000;stroke-width:0.5;" x="575.25" xlink:href="#mcb0005524f" y="289.032307943"/>
      </g>
     </g>
     <g id="text_14">
      <!-- 1.0 -->
      <g transform="translate(41.111328125 292.343557943)scale(0.12 -0.12)">
       <use xlink:href="#DejaVuSans-31"/>
       <use x="63.623046875" xlink:href="#DejaVuSans-2e"/>
       <use x="95.41015625" xlink:href="#DejaVuSans-30"/>
      </g>
     </g>
    </g>
    <g id="ytick_7">
     <g id="line2d_27">
      <g>
       <use style="stroke:#000000;stroke-width:0.5;" x="62.080078125" xlink:href="#m728421d6d4" y="323.298461914"/>
      </g>
     </g>
     <g id="line2d_28">
      <g>
       <use style="stroke:#000000;stroke-width:0.5;" x="575.25" xlink:href="#mcb0005524f" y="323.298461914"/>
      </g>
     </g>
     <g id="text_15">
      <!-- 1.5 -->
      <g transform="translate(41.362578125 326.609711914)scale(0.12 -0.12)">
       <use xlink:href="#DejaVuSans-31"/>
       <use x="63.623046875" xlink:href="#DejaVuSans-2e"/>
       <use x="95.41015625" xlink:href="#DejaVuSans-35"/>
      </g>
     </g>
    </g>
    <g id="text_16">
     <!-- $z$ [µm] -->
     <defs>
      <path d="
M4.89062 -1.125
Q4.10938 -1.125 4.10938 -0.203125
Q4.10938 0.296875 4.29688 0.484375
Q6.98438 5.125 10.7656 9.34375
Q14.5469 13.5781 19.3594 17.8906
Q24.1719 22.2188 29.0312 26.5625
Q33.8906 30.9062 36.9219 34.2812
L36.5312 34.2812
Q34.3281 34.2812 30.0781 35.6875
Q25.8281 37.1094 23.3906 37.1094
Q20.75 37.1094 18.25 35.9531
Q15.7656 34.8125 15.0938 32.4219
Q14.9375 31.6875 14.3125 31.6875
L13.0938 31.6875
Q12.3125 31.6875 12.3125 32.7188
L12.3125 33.0156
Q13.0938 35.9375 14.875 38.4688
Q16.6562 41.0156 19.2656 42.5938
Q21.875 44.1875 24.7031 44.1875
Q26.7031 44.1875 28.0156 43.2812
Q29.3438 42.3906 31.0938 40.4844
Q32.8594 38.5781 33.9531 37.75
Q35.0625 36.9219 36.7188 36.9219
Q38.9219 36.9219 40.6562 38.9219
Q42.3906 40.9219 44.0938 43.8906
Q44.3906 44.1875 44.8281 44.1875
L46 44.1875
Q46.3438 44.1875 46.5625 43.9375
Q46.7812 43.7031 46.7812 43.3125
Q46.7812 42.9688 46.5781 42.6719
Q43.8906 38.0312 40.2969 34
Q36.7188 29.9844 30.9219 24.7812
Q25.1406 19.5781 21.1562 15.9844
Q17.1875 12.4062 13.7188 8.59375
Q14.5 8.79688 15.8281 8.79688
Q18.2656 8.79688 22.4844 7.39062
Q26.7031 6 29 6
Q31.5 6 34.0312 7.07812
Q36.5781 8.15625 38.4219 10.1094
Q40.2812 12.0625 40.9219 14.5938
Q41.1562 15.2812 41.7031 15.2812
L42.9219 15.2812
Q43.3125 15.2812 43.5469 14.9688
Q43.7969 14.6562 43.7969 14.3125
Q43.7969 14.2031 43.7031 14.0156
Q42.7812 10.2031 40.4844 6.76562
Q38.1875 3.32812 34.8438 1.09375
Q31.5 -1.125 27.6875 -1.125
Q25.7812 -1.125 24.4531 -0.234375
Q23.1406 0.640625 21.3594 2.5625
Q19.5781 4.5 18.4531 5.34375
Q17.3281 6.20312 15.7188 6.20312
Q10.75 6.20312 6.78125 -0.78125
Q6.45312 -1.125 6.10938 -1.125
z
" id="Cmmi10-7a"/>
     </defs>
     <g transform="translate(23.488828125 239.4)rotate(-90.0)scale(0.12 -0.12)">
      <use transform="translate(0.0 0.015625)" xlink:href="#Cmmi10-7a"/>
      <use transform="translate(46.484375 0.015625)" xlink:href="#DejaVuSans-20"/>
      <use transform="translate(78.271484375 0.015625)" xlink:href="#DejaVuSans-5b"/>
      <use transform="translate(114.16015625 0.015625)" xlink:href="#DejaVuSans-b5"/>
      <use transform="translate(177.783203125 0.015625)" xlink:href="#DejaVuSans-6d"/>
      <use transform="translate(275.1953125 0.015625)" xlink:href="#DejaVuSans-5d"/>
     </g>
    </g>
   </g>
  </g>
 </g>
 <defs>
  <clipPath id="p4f530fa14d">
   <rect height="270.83968099" width="513.169921875" x="62.080078125" y="85.0801595052"/>
  </clipPath>
 </defs>
</svg>
