<?xml version="1.0" encoding="UTF-8" standalone="no"?>
<!-- Created with Inkscape (http://www.inkscape.org/) -->

<svg
   xmlns:dc="http://purl.org/dc/elements/1.1/"
   xmlns:cc="http://creativecommons.org/ns#"
   xmlns:rdf="http://www.w3.org/1999/02/22-rdf-syntax-ns#"
   xmlns:svg="http://www.w3.org/2000/svg"
   xmlns="http://www.w3.org/2000/svg"
   xmlns:sodipodi="http://sodipodi.sourceforge.net/DTD/sodipodi-0.dtd"
   xmlns:inkscape="http://www.inkscape.org/namespaces/inkscape"
   width="250"
   height="250"
   id="svg8644"
   version="1.1"
   inkscape:version="0.48.4 r9939"
   sodipodi:docname="logo.svg">
  <defs
     id="defs8646" />
  <sodipodi:namedview
     id="base"
     pagecolor="#ffffff"
     bordercolor="#666666"
     borderopacity="1.0"
     inkscape:pageopacity="0.0"
     inkscape:pageshadow="2"
     inkscape:zoom="2.8"
     inkscape:cx="214.97138"
     inkscape:cy="107.92381"
     inkscape:document-units="px"
     inkscape:current-layer="layer1"
     showgrid="false"
     inkscape:snap-bbox="false"
     inkscape:bbox-paths="false"
     inkscape:bbox-nodes="false"
     showguides="false"
     inkscape:guide-bbox="true"
     inkscape:object-paths="true"
     inkscape:object-nodes="true"
     inkscape:snap-object-midpoints="false"
     inkscape:snap-to-guides="true"
     inkscape:window-width="1854"
     inkscape:window-height="1050"
     inkscape:window-x="66"
     inkscape:window-y="30"
     inkscape:window-maximized="1">
    <inkscape:grid
       type="xygrid"
       id="grid8652"
       units="px"
       empspacing="5"
       dotted="false"
       visible="true"
       enabled="true"
       snapvisiblegridlinesonly="true"
       spacingx="5px"
       spacingy="5px" />
    <sodipodi:guide
       orientation="1,0"
       position="125,65"
       id="guide9462" />
  </sodipodi:namedview>
  <metadata
     id="metadata8649">
    <rdf:RDF>
      <cc:Work
         rdf:about="">
        <dc:format>image/svg+xml</dc:format>
        <dc:type
           rdf:resource="http://purl.org/dc/dcmitype/StillImage" />
        <dc:title />
      </cc:Work>
    </rdf:RDF>
  </metadata>
  <g
     inkscape:label="Layer 1"
     inkscape:groupmode="layer"
     id="layer1"
     transform="translate(0,-802.36218)">
    <g
       id="g3126">
      <path
         inkscape:connector-curvature="0"
         id="path9518"
         d="m 75,857.36218 0,10 0,0.40625 0,10 0,10 0,10 0,1.25 -0.125,0 0,1 C 59.59868,905.5103 50,913.49962 50,922.36218 l 0,10 0,10 0,10 0,10 0,10 0,10 0,10 c 0,16.56852 33.57864,30.00002 75,30.00002 41.42136,0 75,-13.4315 75,-30.00002 l 0,-10 0,-10 0,-10 0,-10 0,-10 0,-10 0,-10 c 0,-8.88567 -9.65424,-16.88176 -25,-22.375 l 0,-0.625 0,-4.75 0,-7.25 0,-10 0,-9.59375 0,-0.40625 0,-10 -100,0 z"
         style="fill:#fce94f;fill-opacity:1;fill-rule:nonzero;stroke:none" />
      <path
         inkscape:connector-curvature="0"
         id="path9468"
         d="m 125,839.36218 c -27.61424,0 -50,8.05888 -50,18 l 0,10 0,0.40625 0,10 0,10 0,10 0,1.25 0,20.75 c 0.0413,7.37978 12.35879,13.72162 30,16.5 l 0,-62.40625 c 6.12599,0.96386 12.88694,1.5 20,1.5 27.61424,0 50,-8.05887 50,-18 0,-9.94112 -22.38576,-18 -50,-18 z m -75,83 0,10 0,10 0,10 0,10 0,10 0,10 0,10 c 0,16.56852 33.57864,30.00002 75,30.00002 15.00532,0 28.96412,-1.7766 40.6875,-4.8125 l 0,-70.00002 c -11.72338,3.03589 -25.68218,4.8125 -40.6875,4.8125 -41.42136,0 -75,-13.43146 -75,-30 z"
         style="fill:#a40000;fill-opacity:1;fill-rule:nonzero;stroke:none" />
    </g>
  </g>
</svg>
