<?xml version="1.0" encoding="UTF-8" standalone="no"?>
<!-- Created with Inkscape (http://www.inkscape.org/) -->

<svg
   xmlns:dc="http://purl.org/dc/elements/1.1/"
   xmlns:cc="http://creativecommons.org/ns#"
   xmlns:rdf="http://www.w3.org/1999/02/22-rdf-syntax-ns#"
   xmlns:svg="http://www.w3.org/2000/svg"
   xmlns="http://www.w3.org/2000/svg"
   xmlns:sodipodi="http://sodipodi.sourceforge.net/DTD/sodipodi-0.dtd"
   xmlns:inkscape="http://www.inkscape.org/namespaces/inkscape"
   id="svg7384"
   height="16"
   width="16"
   version="1.1"
   inkscape:version="0.91 r13725"
   sodipodi:docname="software-update-available.svg">
  <defs
     id="defs9" />
  <sodipodi:namedview
     pagecolor="#ffffff"
     bordercolor="#666666"
     borderopacity="1"
     objecttolerance="10"
     gridtolerance="10"
     guidetolerance="10"
     inkscape:pageopacity="0"
     inkscape:pageshadow="2"
     inkscape:window-width="1855"
     inkscape:window-height="1056"
     id="namedview7"
     showgrid="false"
     inkscape:zoom="14.75"
     inkscape:cx="-0.33898305"
     inkscape:cy="8"
     inkscape:window-x="65"
     inkscape:window-y="24"
     inkscape:window-maximized="1"
     inkscape:current-layer="svg7384" />
  <metadata
     id="metadata90">
    <rdf:RDF>
      <cc:Work
         rdf:about="">
        <dc:format>image/svg+xml</dc:format>
        <dc:type
           rdf:resource="http://purl.org/dc/dcmitype/StillImage" />
        <dc:title>Gnome Symbolic Icon Theme</dc:title>
      </cc:Work>
    </rdf:RDF>
  </metadata>
  <title
     id="title9167">Gnome Symbolic Icon Theme</title>
  <g
     id="layer9"
     transform="translate(-181 -257)">
    <path
       id="rect7040"
       style="enable-background:new;fill:#bebebe;fill-rule:evenodd;stroke:#000000;stroke-linejoin:bevel"
       d="m189 257.06-2.25 3.4062-3.4375-1.1562 1.1562 3.4375-3.4062 2.25 3.4062 2.25-1.1562 3.4375 3.4375-1.1562 2.25 3.4062 2.25-3.4062 3.4375 1.1562-1.1562-3.4375 3.4062-2.25-3.4062-2.25 1.1562-3.4375-3.4375 1.1562zm0 4.5312 0.71875 0.6875 2 2c0.2236 0.22597 0.33131 0.56107 0.28125 0.875v0.84375h-0.875c-0.30421 0.0401-0.62444-0.0666-0.84375-0.28125l-0.28125-0.28125v2.5625h-2v-2.5625l-0.28125 0.28125c-0.19084 0.18226-0.45489 0.28559-0.71875 0.28125h-0.15625-0.84375v-0.78125c-0.001-0.0312-0.001-0.0625 0-0.0937-0.0401-0.30421 0.0666-0.62444 0.28125-0.84375l2-2z" />
  </g>
</svg>
