<?xml version="1.0" encoding="UTF-8" standalone="no"?>
<!-- Created with matplotlib (http://matplotlib.org/) -->

<svg
   xmlns:dc="http://purl.org/dc/elements/1.1/"
   xmlns:cc="http://creativecommons.org/ns#"
   xmlns:rdf="http://www.w3.org/1999/02/22-rdf-syntax-ns#"
   xmlns:svg="http://www.w3.org/2000/svg"
   xmlns="http://www.w3.org/2000/svg"
   xmlns:xlink="http://www.w3.org/1999/xlink"
   xmlns:sodipodi="http://sodipodi.sourceforge.net/DTD/sodipodi-0.dtd"
   xmlns:inkscape="http://www.inkscape.org/namespaces/inkscape"
   height="324pt"
   version="1.1"
   viewBox="0 0 432 324"
   width="432pt"
   id="svg2"
   inkscape:version="0.91 r13725"
   sodipodi:docname="lattice_helper.svg">
  <metadata
     id="metadata331">
    <rdf:RDF>
      <cc:Work
         rdf:about="">
        <dc:format>image/svg+xml</dc:format>
        <dc:type
           rdf:resource="http://purl.org/dc/dcmitype/StillImage" />
      </cc:Work>
    </rdf:RDF>
  </metadata>
  <sodipodi:namedview
     pagecolor="#ffffff"
     bordercolor="#666666"
     borderopacity="1"
     objecttolerance="10"
     gridtolerance="10"
     guidetolerance="10"
     inkscape:pageopacity="0"
     inkscape:pageshadow="2"
     inkscape:window-width="1855"
     inkscape:window-height="1056"
     id="namedview329"
     showgrid="false"
     inkscape:zoom="1.4142136"
     inkscape:cx="455.83972"
     inkscape:cy="262.61583"
     inkscape:window-x="65"
     inkscape:window-y="24"
     inkscape:window-maximized="1"
     inkscape:current-layer="svg2" />
  <defs
     id="defs4">
    <style
       type="text/css"
       id="style6">
*{stroke-linecap:butt;stroke-linejoin:round;}
  </style>
  </defs>
  <g
     id="figure_1">
    <g
       id="patch_1">
      <path
         d=" M0 324 L432 324 L432 0 L0 0 z "
         style="fill:#ffffff;"
         id="path10" />
    </g>
    <g
       id="axes_1">
      <g
         id="patch_2">
        <path
           d=" M45.3769 279.713 L422.4 279.713 L422.4 26.3037 L45.3769 26.3037 z "
           style="fill:#ffffff;"
           id="path14" />
      </g>
      <g
         id="patch_3">
        <path
           clip-path="url(#p5cc845d2d5)"
           d=" M55.5989 34.1484 L352.748 34.1484 L352.748 271.868 L55.5989 271.868 z "
           style="fill:none;stroke:#ef2929;stroke-linejoin:miter"
           id="path17" />
      </g>
      <g
         id="patch_4">
        <path
           clip-path="url(#p5cc845d2d5)"
           d=" M115.029 93.5783 L233.888 93.5783 L233.888 212.438 L115.029 212.438 z "
           style="fill:none;stroke:#73d216;stroke-linejoin:miter"
           id="path20" />
      </g>
      <g
         id="patch_5">
        <path
           clip-path="url(#p5cc845d2d5)"
           d=" M55.5989 31.1769 C56.3869 31.1769 57.1428 31.49 57.7 32.0472 C58.2573 32.6045 58.5704 33.3604 58.5704 34.1484 C58.5704 34.9365 58.2573 35.6923 57.7 36.2496 C57.1428 36.8068 56.3869 37.1199 55.5989 37.1199 C54.8108 37.1199 54.0549 36.8068 53.4977 36.2496 C52.9405 35.6923 52.6274 34.9365 52.6274 34.1484 C52.6274 33.3604 52.9405 32.6045 53.4977 32.0472 C54.0549 31.49 54.8108 31.1769 55.5989 31.1769 z "
           style="fill:none;stroke:#000000;stroke-linejoin:miter;"
           id="path23" />
      </g>
      <g
         id="patch_6">
        <path
           clip-path="url(#p5cc845d2d5)"
           d=" M55.5989 90.6068 C56.3869 90.6068 57.1428 90.9199 57.7 91.4771 C58.2573 92.0343 58.5704 92.7902 58.5704 93.5783 C58.5704 94.3663 58.2573 95.1222 57.7 95.6794 C57.1428 96.2367 56.3869 96.5498 55.5989 96.5498 C54.8108 96.5498 54.0549 96.2367 53.4977 95.6794 C52.9405 95.1222 52.6274 94.3663 52.6274 93.5783 C52.6274 92.7902 52.9405 92.0343 53.4977 91.4771 C54.0549 90.9199 54.8108 90.6068 55.5989 90.6068 z "
           style="fill:none;stroke:#000000;stroke-linejoin:miter;"
           id="path26" />
      </g>
      <g
         id="patch_7">
        <path
           clip-path="url(#p5cc845d2d5)"
           d=" M55.5989 150.037 C56.3869 150.037 57.1428 150.35 57.7 150.907 C58.2573 151.464 58.5704 152.22 58.5704 153.008 C58.5704 153.796 58.2573 154.552 57.7 155.109 C57.1428 155.667 56.3869 155.98 55.5989 155.98 C54.8108 155.98 54.0549 155.667 53.4977 155.109 C52.9405 154.552 52.6274 153.796 52.6274 153.008 C52.6274 152.22 52.9405 151.464 53.4977 150.907 C54.0549 150.35 54.8108 150.037 55.5989 150.037 z "
           style="fill:none;stroke:#000000;stroke-linejoin:miter;"
           id="path29" />
      </g>
      <g
         id="patch_8">
        <path
           clip-path="url(#p5cc845d2d5)"
           d=" M55.5989 209.467 C56.3869 209.467 57.1428 209.78 57.7 210.337 C58.2573 210.894 58.5704 211.65 58.5704 212.438 C58.5704 213.226 58.2573 213.982 57.7 214.539 C57.1428 215.096 56.3869 215.409 55.5989 215.409 C54.8108 215.409 54.0549 215.096 53.4977 214.539 C52.9405 213.982 52.6274 213.226 52.6274 212.438 C52.6274 211.65 52.9405 210.894 53.4977 210.337 C54.0549 209.78 54.8108 209.467 55.5989 209.467 z "
           style="fill:none;stroke:#000000;stroke-linejoin:miter;"
           id="path32" />
      </g>
      <g
         id="patch_9">
        <path
           clip-path="url(#p5cc845d2d5)"
           d=" M55.5989 268.896 C56.3869 268.896 57.1428 269.209 57.7 269.767 C58.2573 270.324 58.5704 271.08 58.5704 271.868 C58.5704 272.656 58.2573 273.412 57.7 273.969 C57.1428 274.526 56.3869 274.839 55.5989 274.839 C54.8108 274.839 54.0549 274.526 53.4977 273.969 C52.9405 273.412 52.6274 272.656 52.6274 271.868 C52.6274 271.08 52.9405 270.324 53.4977 269.767 C54.0549 269.209 54.8108 268.896 55.5989 268.896 z "
           style="fill:none;stroke:#000000;stroke-linejoin:miter;"
           id="path35" />
      </g>
      <g
         id="patch_10">
        <path
           clip-path="url(#p5cc845d2d5)"
           d=" M115.029 31.1769 C115.817 31.1769 116.573 31.49 117.13 32.0472 C117.687 32.6045 118 33.3604 118 34.1484 C118 34.9365 117.687 35.6923 117.13 36.2496 C116.573 36.8068 115.817 37.1199 115.029 37.1199 C114.241 37.1199 113.485 36.8068 112.928 36.2496 C112.37 35.6923 112.057 34.9365 112.057 34.1484 C112.057 33.3604 112.37 32.6045 112.928 32.0472 C113.485 31.49 114.241 31.1769 115.029 31.1769 z "
           style="fill:none;stroke:#000000;stroke-linejoin:miter;"
           id="path38" />
      </g>
      <g
         id="patch_11">
        <path
           clip-path="url(#p5cc845d2d5)"
           d=" M115.029 90.6068 C115.817 90.6068 116.573 90.9199 117.13 91.4771 C117.687 92.0343 118 92.7902 118 93.5783 C118 94.3663 117.687 95.1222 117.13 95.6794 C116.573 96.2367 115.817 96.5498 115.029 96.5498 C114.241 96.5498 113.485 96.2367 112.928 95.6794 C112.37 95.1222 112.057 94.3663 112.057 93.5783 C112.057 92.7902 112.37 92.0343 112.928 91.4771 C113.485 90.9199 114.241 90.6068 115.029 90.6068 z "
           style="fill:none;stroke:#000000;stroke-linejoin:miter;"
           id="path41" />
      </g>
      <g
         id="patch_12">
        <path
           clip-path="url(#p5cc845d2d5)"
           d=" M115.029 150.037 C115.817 150.037 116.573 150.35 117.13 150.907 C117.687 151.464 118 152.22 118 153.008 C118 153.796 117.687 154.552 117.13 155.109 C116.573 155.667 115.817 155.98 115.029 155.98 C114.241 155.98 113.485 155.667 112.928 155.109 C112.37 154.552 112.057 153.796 112.057 153.008 C112.057 152.22 112.37 151.464 112.928 150.907 C113.485 150.35 114.241 150.037 115.029 150.037 z "
           style="fill:none;stroke:#000000;stroke-linejoin:miter;"
           id="path44" />
      </g>
      <g
         id="patch_13">
        <path
           clip-path="url(#p5cc845d2d5)"
           d=" M115.029 209.467 C115.817 209.467 116.573 209.78 117.13 210.337 C117.687 210.894 118 211.65 118 212.438 C118 213.226 117.687 213.982 117.13 214.539 C116.573 215.096 115.817 215.409 115.029 215.409 C114.241 215.409 113.485 215.096 112.928 214.539 C112.37 213.982 112.057 213.226 112.057 212.438 C112.057 211.65 112.37 210.894 112.928 210.337 C113.485 209.78 114.241 209.467 115.029 209.467 z "
           style="fill:none;stroke:#000000;stroke-linejoin:miter;"
           id="path47" />
      </g>
      <g
         id="patch_14">
        <path
           clip-path="url(#p5cc845d2d5)"
           d=" M115.029 268.896 C115.817 268.896 116.573 269.209 117.13 269.767 C117.687 270.324 118 271.08 118 271.868 C118 272.656 117.687 273.412 117.13 273.969 C116.573 274.526 115.817 274.839 115.029 274.839 C114.241 274.839 113.485 274.526 112.928 273.969 C112.37 273.412 112.057 272.656 112.057 271.868 C112.057 271.08 112.37 270.324 112.928 269.767 C113.485 269.209 114.241 268.896 115.029 268.896 z "
           style="fill:none;stroke:#000000;stroke-linejoin:miter;"
           id="path50" />
      </g>
      <g
         id="patch_15">
        <path
           clip-path="url(#p5cc845d2d5)"
           d=" M174.459 31.1769 C175.247 31.1769 176.003 31.49 176.56 32.0472 C177.117 32.6045 177.43 33.3604 177.43 34.1484 C177.43 34.9365 177.117 35.6923 176.56 36.2496 C176.003 36.8068 175.247 37.1199 174.459 37.1199 C173.671 37.1199 172.915 36.8068 172.357 36.2496 C171.8 35.6923 171.487 34.9365 171.487 34.1484 C171.487 33.3604 171.8 32.6045 172.357 32.0472 C172.915 31.49 173.671 31.1769 174.459 31.1769 z "
           style="fill:none;stroke:#000000;stroke-linejoin:miter;"
           id="path53" />
      </g>
      <g
         id="patch_16">
        <path
           clip-path="url(#p5cc845d2d5)"
           d=" M174.459 90.6068 C175.247 90.6068 176.003 90.9199 176.56 91.4771 C177.117 92.0343 177.43 92.7902 177.43 93.5783 C177.43 94.3663 177.117 95.1222 176.56 95.6794 C176.003 96.2367 175.247 96.5498 174.459 96.5498 C173.671 96.5498 172.915 96.2367 172.357 95.6794 C171.8 95.1222 171.487 94.3663 171.487 93.5783 C171.487 92.7902 171.8 92.0343 172.357 91.4771 C172.915 90.9199 173.671 90.6068 174.459 90.6068 z "
           style="fill:none;stroke:#000000;stroke-linejoin:miter;"
           id="path56" />
      </g>
      <g
         id="patch_17">
        <path
           clip-path="url(#p5cc845d2d5)"
           d=" M174.459 209.467 C175.247 209.467 176.003 209.78 176.56 210.337 C177.117 210.894 177.43 211.65 177.43 212.438 C177.43 213.226 177.117 213.982 176.56 214.539 C176.003 215.096 175.247 215.409 174.459 215.409 C173.671 215.409 172.915 215.096 172.357 214.539 C171.8 213.982 171.487 213.226 171.487 212.438 C171.487 211.65 171.8 210.894 172.357 210.337 C172.915 209.78 173.671 209.467 174.459 209.467 z "
           style="fill:none;stroke:#000000;stroke-linejoin:miter;"
           id="path59" />
      </g>
      <g
         id="patch_18">
        <path
           clip-path="url(#p5cc845d2d5)"
           d=" M174.459 268.896 C175.247 268.896 176.003 269.209 176.56 269.767 C177.117 270.324 177.43 271.08 177.43 271.868 C177.43 272.656 177.117 273.412 176.56 273.969 C176.003 274.526 175.247 274.839 174.459 274.839 C173.671 274.839 172.915 274.526 172.357 273.969 C171.8 273.412 171.487 272.656 171.487 271.868 C171.487 271.08 171.8 270.324 172.357 269.767 C172.915 269.209 173.671 268.896 174.459 268.896 z "
           style="fill:none;stroke:#000000;stroke-linejoin:miter;"
           id="path62" />
      </g>
      <g
         id="patch_19">
        <path
           clip-path="url(#p5cc845d2d5)"
           d=" M233.888 31.1769 C234.677 31.1769 235.432 31.49 235.99 32.0472 C236.547 32.6045 236.86 33.3604 236.86 34.1484 C236.86 34.9365 236.547 35.6923 235.99 36.2496 C235.432 36.8068 234.677 37.1199 233.888 37.1199 C233.1 37.1199 232.345 36.8068 231.787 36.2496 C231.23 35.6923 230.917 34.9365 230.917 34.1484 C230.917 33.3604 231.23 32.6045 231.787 32.0472 C232.345 31.49 233.1 31.1769 233.888 31.1769 z "
           style="fill:none;stroke:#000000;stroke-linejoin:miter;"
           id="path65" />
      </g>
      <g
         id="patch_20">
        <path
           clip-path="url(#p5cc845d2d5)"
           d=" M233.888 90.6068 C234.677 90.6068 235.432 90.9199 235.99 91.4771 C236.547 92.0343 236.86 92.7902 236.86 93.5783 C236.86 94.3663 236.547 95.1222 235.99 95.6794 C235.432 96.2367 234.677 96.5498 233.888 96.5498 C233.1 96.5498 232.345 96.2367 231.787 95.6794 C231.23 95.1222 230.917 94.3663 230.917 93.5783 C230.917 92.7902 231.23 92.0343 231.787 91.4771 C232.345 90.9199 233.1 90.6068 233.888 90.6068 z "
           style="fill:none;stroke:#000000;stroke-linejoin:miter;"
           id="path68" />
      </g>
      <g
         id="patch_21">
        <path
           clip-path="url(#p5cc845d2d5)"
           d=" M233.888 150.037 C234.677 150.037 235.432 150.35 235.99 150.907 C236.547 151.464 236.86 152.22 236.86 153.008 C236.86 153.796 236.547 154.552 235.99 155.109 C235.432 155.667 234.677 155.98 233.888 155.98 C233.1 155.98 232.345 155.667 231.787 155.109 C231.23 154.552 230.917 153.796 230.917 153.008 C230.917 152.22 231.23 151.464 231.787 150.907 C232.345 150.35 233.1 150.037 233.888 150.037 z "
           style="fill:none;stroke:#000000;stroke-linejoin:miter;"
           id="path71" />
      </g>
      <g
         id="patch_22">
        <path
           clip-path="url(#p5cc845d2d5)"
           d=" M233.888 209.467 C234.677 209.467 235.432 209.78 235.99 210.337 C236.547 210.894 236.86 211.65 236.86 212.438 C236.86 213.226 236.547 213.982 235.99 214.539 C235.432 215.096 234.677 215.409 233.888 215.409 C233.1 215.409 232.345 215.096 231.787 214.539 C231.23 213.982 230.917 213.226 230.917 212.438 C230.917 211.65 231.23 210.894 231.787 210.337 C232.345 209.78 233.1 209.467 233.888 209.467 z "
           style="fill:none;stroke:#000000;stroke-linejoin:miter;"
           id="path74" />
      </g>
      <g
         id="patch_23">
        <path
           clip-path="url(#p5cc845d2d5)"
           d=" M233.888 268.896 C234.677 268.896 235.432 269.209 235.99 269.767 C236.547 270.324 236.86 271.08 236.86 271.868 C236.86 272.656 236.547 273.412 235.99 273.969 C235.432 274.526 234.677 274.839 233.888 274.839 C233.1 274.839 232.345 274.526 231.787 273.969 C231.23 273.412 230.917 272.656 230.917 271.868 C230.917 271.08 231.23 270.324 231.787 269.767 C232.345 269.209 233.1 268.896 233.888 268.896 z "
           style="fill:none;stroke:#000000;stroke-linejoin:miter;"
           id="path77" />
      </g>
      <g
         id="patch_24">
        <path
           clip-path="url(#p5cc845d2d5)"
           d=" M293.318 31.1769 C294.106 31.1769 294.862 31.49 295.419 32.0472 C295.977 32.6045 296.29 33.3604 296.29 34.1484 C296.29 34.9365 295.977 35.6923 295.419 36.2496 C294.862 36.8068 294.106 37.1199 293.318 37.1199 C292.53 37.1199 291.774 36.8068 291.217 36.2496 C290.66 35.6923 290.347 34.9365 290.347 34.1484 C290.347 33.3604 290.66 32.6045 291.217 32.0472 C291.774 31.49 292.53 31.1769 293.318 31.1769 z "
           style="fill:none;stroke:#000000;stroke-linejoin:miter;"
           id="path80" />
      </g>
      <g
         id="patch_25">
        <path
           clip-path="url(#p5cc845d2d5)"
           d=" M293.318 90.6068 C294.106 90.6068 294.862 90.9199 295.419 91.4771 C295.977 92.0343 296.29 92.7902 296.29 93.5783 C296.29 94.3663 295.977 95.1222 295.419 95.6794 C294.862 96.2367 294.106 96.5498 293.318 96.5498 C292.53 96.5498 291.774 96.2367 291.217 95.6794 C290.66 95.1222 290.347 94.3663 290.347 93.5783 C290.347 92.7902 290.66 92.0343 291.217 91.4771 C291.774 90.9199 292.53 90.6068 293.318 90.6068 z "
           style="fill:none;stroke:#000000;stroke-linejoin:miter;"
           id="path83" />
      </g>
      <g
         id="patch_26">
        <path
           clip-path="url(#p5cc845d2d5)"
           d=" M293.318 150.037 C294.106 150.037 294.862 150.35 295.419 150.907 C295.977 151.464 296.29 152.22 296.29 153.008 C296.29 153.796 295.977 154.552 295.419 155.109 C294.862 155.667 294.106 155.98 293.318 155.98 C292.53 155.98 291.774 155.667 291.217 155.109 C290.66 154.552 290.347 153.796 290.347 153.008 C290.347 152.22 290.66 151.464 291.217 150.907 C291.774 150.35 292.53 150.037 293.318 150.037 z "
           style="fill:none;stroke:#000000;stroke-linejoin:miter;"
           id="path86" />
      </g>
      <g
         id="patch_27">
        <path
           clip-path="url(#p5cc845d2d5)"
           d=" M293.318 209.467 C294.106 209.467 294.862 209.78 295.419 210.337 C295.977 210.894 296.29 211.65 296.29 212.438 C296.29 213.226 295.977 213.982 295.419 214.539 C294.862 215.096 294.106 215.409 293.318 215.409 C292.53 215.409 291.774 215.096 291.217 214.539 C290.66 213.982 290.347 213.226 290.347 212.438 C290.347 211.65 290.66 210.894 291.217 210.337 C291.774 209.78 292.53 209.467 293.318 209.467 z "
           style="fill:none;stroke:#000000;stroke-linejoin:miter;"
           id="path89" />
      </g>
      <g
         id="patch_28">
        <path
           clip-path="url(#p5cc845d2d5)"
           d=" M293.318 268.896 C294.106 268.896 294.862 269.209 295.419 269.767 C295.977 270.324 296.29 271.08 296.29 271.868 C296.29 272.656 295.977 273.412 295.419 273.969 C294.862 274.526 294.106 274.839 293.318 274.839 C292.53 274.839 291.774 274.526 291.217 273.969 C290.66 273.412 290.347 272.656 290.347 271.868 C290.347 271.08 290.66 270.324 291.217 269.767 C291.774 269.209 292.53 268.896 293.318 268.896 z "
           style="fill:none;stroke:#000000;stroke-linejoin:miter;"
           id="path92" />
      </g>
      <g
         id="patch_29">
        <path
           clip-path="url(#p5cc845d2d5)"
           d=" M352.748 31.1769 C353.536 31.1769 354.292 31.49 354.849 32.0472 C355.407 32.6045 355.72 33.3604 355.72 34.1484 C355.72 34.9365 355.407 35.6923 354.849 36.2496 C354.292 36.8068 353.536 37.1199 352.748 37.1199 C351.96 37.1199 351.204 36.8068 350.647 36.2496 C350.09 35.6923 349.777 34.9365 349.777 34.1484 C349.777 33.3604 350.09 32.6045 350.647 32.0472 C351.204 31.49 351.96 31.1769 352.748 31.1769 z "
           style="fill:none;stroke:#000000;stroke-linejoin:miter;"
           id="path95" />
      </g>
      <g
         id="patch_30">
        <path
           clip-path="url(#p5cc845d2d5)"
           d=" M352.748 90.6068 C353.536 90.6068 354.292 90.9199 354.849 91.4771 C355.407 92.0343 355.72 92.7902 355.72 93.5783 C355.72 94.3663 355.407 95.1222 354.849 95.6794 C354.292 96.2367 353.536 96.5498 352.748 96.5498 C351.96 96.5498 351.204 96.2367 350.647 95.6794 C350.09 95.1222 349.777 94.3663 349.777 93.5783 C349.777 92.7902 350.09 92.0343 350.647 91.4771 C351.204 90.9199 351.96 90.6068 352.748 90.6068 z "
           style="fill:none;stroke:#000000;stroke-linejoin:miter;"
           id="path98" />
      </g>
      <g
         id="patch_31">
        <path
           clip-path="url(#p5cc845d2d5)"
           d=" M352.748 150.037 C353.536 150.037 354.292 150.35 354.849 150.907 C355.407 151.464 355.72 152.22 355.72 153.008 C355.72 153.796 355.407 154.552 354.849 155.109 C354.292 155.667 353.536 155.98 352.748 155.98 C351.96 155.98 351.204 155.667 350.647 155.109 C350.09 154.552 349.777 153.796 349.777 153.008 C349.777 152.22 350.09 151.464 350.647 150.907 C351.204 150.35 351.96 150.037 352.748 150.037 z "
           style="fill:none;stroke:#000000;stroke-linejoin:miter;"
           id="path101" />
      </g>
      <g
         id="patch_32">
        <path
           clip-path="url(#p5cc845d2d5)"
           d=" M352.748 209.467 C353.536 209.467 354.292 209.78 354.849 210.337 C355.407 210.894 355.72 211.65 355.72 212.438 C355.72 213.226 355.407 213.982 354.849 214.539 C354.292 215.096 353.536 215.409 352.748 215.409 C351.96 215.409 351.204 215.096 350.647 214.539 C350.09 213.982 349.777 213.226 349.777 212.438 C349.777 211.65 350.09 210.894 350.647 210.337 C351.204 209.78 351.96 209.467 352.748 209.467 z "
           style="fill:none;stroke:#000000;stroke-linejoin:miter;"
           id="path104" />
      </g>
      <g
         id="patch_33">
        <path
           clip-path="url(#p5cc845d2d5)"
           d=" M352.748 268.896 C353.536 268.896 354.292 269.209 354.849 269.767 C355.407 270.324 355.72 271.08 355.72 271.868 C355.72 272.656 355.407 273.412 354.849 273.969 C354.292 274.526 353.536 274.839 352.748 274.839 C351.96 274.839 351.204 274.526 350.647 273.969 C350.09 273.412 349.777 272.656 349.777 271.868 C349.777 271.08 350.09 270.324 350.647 269.767 C351.204 269.209 351.96 268.896 352.748 268.896 z "
           style="fill:none;stroke:#000000;stroke-linejoin:miter;"
           id="path107" />
      </g>
      <g
         id="patch_34">
        <path
           clip-path="url(#p5cc845d2d5)"
           d=" M412.178 209.467 C412.966 209.467 413.722 209.78 414.279 210.337 C414.836 210.894 415.15 211.65 415.15 212.438 C415.15 213.226 414.836 213.982 414.279 214.539 C413.722 215.096 412.966 215.409 412.178 215.409 C411.39 215.409 410.634 215.096 410.077 214.539 C409.52 213.982 409.207 213.226 409.207 212.438 C409.207 211.65 409.52 210.894 410.077 210.337 C410.634 209.78 411.39 209.467 412.178 209.467 z "
           style="fill:none;stroke:#000000;stroke-linejoin:miter;"
           id="path110" />
        <path
           id="path4459"
           style="fill:#729fcf;stroke:none;stroke-linecap:butt;stroke-linejoin:miter"
           d="m 412.178,209.467 c 0.788,0 1.544,0.313 2.101,0.87 0.557,0.557 0.871,1.313 0.871,2.101 0,0.788 -0.314,1.544 -0.871,2.101 -0.557,0.557 -1.313,0.87 -2.101,0.87 -0.788,0 -1.544,-0.313 -2.101,-0.87 -0.557,-0.557 -0.87,-1.313 -0.87,-2.101 0,-0.788 0.313,-1.544 0.87,-2.101 0.557,-0.557 1.313,-0.87 2.101,-0.87 z"
           clip-path="url(#p5cc845d2d5)"
           inkscape:connector-curvature="0"
           transform="matrix(0.29425661,0,0,0.29425661,290.89225,149.92671)" />
      </g>
      <g
         id="patch_35">
        <path
           d=" M45.3769 26.3037 L422.4 26.3037"
           style="fill:none;stroke:#000000;stroke-linecap:square;stroke-linejoin:miter;"
           id="path113" />
      </g>
      <g
         id="patch_36">
        <path
           d=" M422.4 279.713 L422.4 26.3037"
           style="fill:none;stroke:#000000;stroke-linecap:square;stroke-linejoin:miter;"
           id="path116" />
      </g>
      <g
         id="patch_37">
        <path
           d=" M45.3769 279.713 L422.4 279.713"
           style="fill:none;stroke:#000000;stroke-linecap:square;stroke-linejoin:miter;"
           id="path119" />
      </g>
      <g
         id="patch_38">
        <path
           d=" M45.3769 279.713 L45.3769 26.3037"
           style="fill:none;stroke:#000000;stroke-linecap:square;stroke-linejoin:miter;"
           id="path122" />
      </g>
      <g
         id="matplotlib.axis_1">
        <g
           id="xtick_1">
          <g
             id="line2d_1">
            <defs
               id="defs127">
              <path
                 d=" M0 0 L0 -4"
                 id="m93b0483c22"
                 style="stroke:#000000;stroke-width:0.5;" />
            </defs>
            <g
               id="g130">
              <use
                 style="stroke:#000000;stroke-width:0.5;"
                 x="55.598876348"
                 xlink:href="#m93b0483c22"
                 y="279.712611292"
                 id="use132" />
            </g>
          </g>
          <g
             id="line2d_2">
            <defs
               id="defs135">
              <path
                 d=" M0 0 L0 4"
                 id="m741efc42ff"
                 style="stroke:#000000;stroke-width:0.5;" />
            </defs>
            <g
               id="g138">
              <use
                 style="stroke:#000000;stroke-width:0.5;"
                 x="55.598876348"
                 xlink:href="#m741efc42ff"
                 y="26.3036690927"
                 id="use140" />
            </g>
          </g>
          <g
             id="text_1">
            <text
               style="font-family:Liberation Sans;font-size:12.0px;font-style:normal;text-anchor:middle;"
               transform="rotate(-0.000000, 55.598876, 292.408861)"
               x="55.598876348"
               y="292.408861292"
               id="text143">−2</text>
          </g>
        </g>
        <g
           id="xtick_2">
          <g
             id="line2d_3">
            <g
               id="g147">
              <use
                 style="stroke:#000000;stroke-width:0.5;"
                 x="115.028740841"
                 xlink:href="#m93b0483c22"
                 y="279.712611292"
                 id="use149" />
            </g>
          </g>
          <g
             id="line2d_4">
            <g
               id="g152">
              <use
                 style="stroke:#000000;stroke-width:0.5;"
                 x="115.028740841"
                 xlink:href="#m741efc42ff"
                 y="26.3036690927"
                 id="use154" />
            </g>
          </g>
          <g
             id="text_2">
            <text
               style="font-family:Liberation Sans;font-size:12.0px;font-style:normal;text-anchor:middle;"
               transform="rotate(-0.000000, 115.028741, 292.408861)"
               x="115.028740841"
               y="292.408861292"
               id="text157">−1</text>
          </g>
        </g>
        <g
           id="xtick_3">
          <g
             id="line2d_5">
            <g
               id="g161">
              <use
                 style="stroke:#000000;stroke-width:0.5;"
                 x="174.458605334"
                 xlink:href="#m93b0483c22"
                 y="279.712611292"
                 id="use163" />
            </g>
          </g>
          <g
             id="line2d_6">
            <g
               id="g166">
              <use
                 style="stroke:#000000;stroke-width:0.5;"
                 x="174.458605334"
                 xlink:href="#m741efc42ff"
                 y="26.3036690927"
                 id="use168" />
            </g>
          </g>
          <g
             id="text_3">
            <text
               style="font-family:Liberation Sans;font-size:12.0px;font-style:normal;text-anchor:middle;"
               transform="rotate(-0.000000, 174.458605, 292.408861)"
               x="174.458605334"
               y="292.408861292"
               id="text171">0</text>
          </g>
        </g>
        <g
           id="xtick_4">
          <g
             id="line2d_7">
            <g
               id="g175">
              <use
                 style="stroke:#000000;stroke-width:0.5;"
                 x="233.888469828"
                 xlink:href="#m93b0483c22"
                 y="279.712611292"
                 id="use177" />
            </g>
          </g>
          <g
             id="line2d_8">
            <g
               id="g180">
              <use
                 style="stroke:#000000;stroke-width:0.5;"
                 x="233.888469828"
                 xlink:href="#m741efc42ff"
                 y="26.3036690927"
                 id="use182" />
            </g>
          </g>
          <g
             id="text_4">
            <text
               style="font-family:Liberation Sans;font-size:12.0px;font-style:normal;text-anchor:middle;"
               transform="rotate(-0.000000, 233.888470, 292.408861)"
               x="233.888469828"
               y="292.408861292"
               id="text185">1</text>
          </g>
        </g>
        <g
           id="xtick_5">
          <g
             id="line2d_9">
            <g
               id="g189">
              <use
                 style="stroke:#000000;stroke-width:0.5;"
                 x="293.318334321"
                 xlink:href="#m93b0483c22"
                 y="279.712611292"
                 id="use191" />
            </g>
          </g>
          <g
             id="line2d_10">
            <g
               id="g194">
              <use
                 style="stroke:#000000;stroke-width:0.5;"
                 x="293.318334321"
                 xlink:href="#m741efc42ff"
                 y="26.3036690927"
                 id="use196" />
            </g>
          </g>
          <g
             id="text_5">
            <text
               style="font-family:Liberation Sans;font-size:12.0px;font-style:normal;text-anchor:middle;"
               transform="rotate(-0.000000, 293.318334, 292.408861)"
               x="293.318334321"
               y="292.408861292"
               id="text199">2</text>
          </g>
        </g>
        <g
           id="xtick_6">
          <g
             id="line2d_11">
            <g
               id="g203">
              <use
                 style="stroke:#000000;stroke-width:0.5;"
                 x="352.748198814"
                 xlink:href="#m93b0483c22"
                 y="279.712611292"
                 id="use205" />
            </g>
          </g>
          <g
             id="line2d_12">
            <g
               id="g208">
              <use
                 style="stroke:#000000;stroke-width:0.5;"
                 x="352.748198814"
                 xlink:href="#m741efc42ff"
                 y="26.3036690927"
                 id="use210" />
            </g>
          </g>
          <g
             id="text_6">
            <text
               style="font-family:Liberation Sans;font-size:12.0px;font-style:normal;text-anchor:middle;"
               transform="rotate(-0.000000, 352.748199, 292.408861)"
               x="352.748198814"
               y="292.408861292"
               id="text213">3</text>
          </g>
        </g>
        <g
           id="xtick_7">
          <g
             id="line2d_13">
            <g
               id="g217">
              <use
                 style="stroke:#000000;stroke-width:0.5;"
                 x="412.178063307"
                 xlink:href="#m93b0483c22"
                 y="279.712611292"
                 id="use219" />
            </g>
          </g>
          <g
             id="line2d_14">
            <g
               id="g222">
              <use
                 style="stroke:#000000;stroke-width:0.5;"
                 x="412.178063307"
                 xlink:href="#m741efc42ff"
                 y="26.3036690927"
                 id="use224" />
            </g>
          </g>
          <g
             id="text_7">
            <text
               style="font-family:Liberation Sans;font-size:12.0px;font-style:normal;text-anchor:middle;"
               transform="rotate(-0.000000, 412.178063, 292.408861)"
               x="412.178063307"
               y="292.408861292"
               id="text227">4</text>
          </g>
        </g>
        <g
           id="text_8">
          <!-- $y$ [µm] -->
          <g
             transform="translate(217.388469828 308.658861292)"
             id="g230">
            <text
               id="text232">
              <tspan
                 style="font-family:Liberation Sans;font-size:12.0px;font-style:regular;"
                 x="6.0 9.333984375 12.66796875 19.58203125 29.578125"
                 y="-0.296875"
                 id="tspan234"> [µm]</tspan>
              <tspan
                 style="font-family:Liberation Sans;font-size:12.0px;font-style:italic;"
                 x="0.0"
                 y="-0.296875"
                 id="tspan236">y</tspan>
            </text>
          </g>
        </g>
      </g>
      <g
         id="matplotlib.axis_2">
        <g
           id="ytick_1">
          <g
             id="line2d_15">
            <defs
               id="defs241">
              <path
                 d=" M0 0 L4 0"
                 id="m728421d6d4"
                 style="stroke:#000000;stroke-width:0.5;" />
            </defs>
            <g
               id="g244">
              <use
                 style="stroke:#000000;stroke-width:0.5;"
                 x="45.3769396552"
                 xlink:href="#m728421d6d4"
                 y="34.1484112058"
                 id="use246" />
            </g>
          </g>
          <g
             id="line2d_16">
            <defs
               id="defs249">
              <path
                 d=" M0 0 L-4 0"
                 id="mcb0005524f"
                 style="stroke:#000000;stroke-width:0.5;" />
            </defs>
            <g
               id="g252">
              <use
                 style="stroke:#000000;stroke-width:0.5;"
                 x="422.4"
                 xlink:href="#mcb0005524f"
                 y="34.1484112058"
                 id="use254" />
            </g>
          </g>
          <g
             id="text_9">
            <text
               style="font-family:Liberation Sans;font-size:12.0px;font-style:normal;text-anchor:end;"
               transform="rotate(-0.000000, 41.376940, 37.251536)"
               x="41.3769396552"
               y="37.2515362058"
               id="text257">−2</text>
          </g>
        </g>
        <g
           id="ytick_2">
          <g
             id="line2d_17">
            <g
               id="g261">
              <use
                 style="stroke:#000000;stroke-width:0.5;"
                 x="45.3769396552"
                 xlink:href="#m728421d6d4"
                 y="93.578275699"
                 id="use263" />
            </g>
          </g>
          <g
             id="line2d_18">
            <g
               id="g266">
              <use
                 style="stroke:#000000;stroke-width:0.5;"
                 x="422.4"
                 xlink:href="#mcb0005524f"
                 y="93.578275699"
                 id="use268" />
            </g>
          </g>
          <g
             id="text_10">
            <text
               style="font-family:Liberation Sans;font-size:12.0px;font-style:normal;text-anchor:end;"
               transform="rotate(-0.000000, 41.376940, 96.681401)"
               x="41.3769396552"
               y="96.681400699"
               id="text271">−1</text>
          </g>
        </g>
        <g
           id="ytick_3">
          <g
             id="line2d_19">
            <g
               id="g275">
              <use
                 style="stroke:#000000;stroke-width:0.5;"
                 x="45.3769396552"
                 xlink:href="#m728421d6d4"
                 y="153.008140192"
                 id="use277" />
            </g>
          </g>
          <g
             id="line2d_20">
            <g
               id="g280">
              <use
                 style="stroke:#000000;stroke-width:0.5;"
                 x="422.4"
                 xlink:href="#mcb0005524f"
                 y="153.008140192"
                 id="use282" />
            </g>
          </g>
          <g
             id="text_11">
            <text
               style="font-family:Liberation Sans;font-size:12.0px;font-style:normal;text-anchor:end;"
               transform="rotate(-0.000000, 41.376940, 156.111265)"
               x="41.3769396552"
               y="156.111265192"
               id="text285">0</text>
          </g>
        </g>
        <g
           id="ytick_4">
          <g
             id="line2d_21">
            <g
               id="g289">
              <use
                 style="stroke:#000000;stroke-width:0.5;"
                 x="45.3769396552"
                 xlink:href="#m728421d6d4"
                 y="212.438004685"
                 id="use291" />
            </g>
          </g>
          <g
             id="line2d_22">
            <g
               id="g294">
              <use
                 style="stroke:#000000;stroke-width:0.5;"
                 x="422.4"
                 xlink:href="#mcb0005524f"
                 y="212.438004685"
                 id="use296" />
            </g>
          </g>
          <g
             id="text_12">
            <text
               style="font-family:Liberation Sans;font-size:12.0px;font-style:normal;text-anchor:end;"
               transform="rotate(-0.000000, 41.376940, 215.541130)"
               x="41.3769396552"
               y="215.541129685"
               id="text299">1</text>
          </g>
        </g>
        <g
           id="ytick_5">
          <g
             id="line2d_23">
            <g
               id="g303">
              <use
                 style="stroke:#000000;stroke-width:0.5;"
                 x="45.3769396552"
                 xlink:href="#m728421d6d4"
                 y="271.867869179"
                 id="use305" />
            </g>
          </g>
          <g
             id="line2d_24">
            <g
               id="g308">
              <use
                 style="stroke:#000000;stroke-width:0.5;"
                 x="422.4"
                 xlink:href="#mcb0005524f"
                 y="271.867869179"
                 id="use310" />
            </g>
          </g>
          <g
             id="text_13">
            <text
               style="font-family:Liberation Sans;font-size:12.0px;font-style:normal;text-anchor:end;"
               transform="rotate(-0.000000, 41.376940, 274.970994)"
               x="41.3769396552"
               y="274.970994179"
               id="text313">2</text>
          </g>
        </g>
        <g
           id="text_14">
          <!-- $x$ [µm] -->
          <g
             transform="translate(21.3525646552 169.508140192)rotate(-90.0)"
             id="g316">
            <text
               id="text318">
              <tspan
                 style="font-family:Liberation Sans;font-size:12.0px;font-style:regular;"
                 x="6.0 9.333984375 12.66796875 19.58203125 29.578125"
                 y="-0.296875"
                 id="tspan320"> [µm]</tspan>
              <tspan
                 style="font-family:Liberation Sans;font-size:12.0px;font-style:italic;"
                 x="0.0"
                 y="-0.296875"
                 id="tspan322">x</tspan>
            </text>
          </g>
        </g>
      </g>
    </g>
  </g>
  <defs
     id="defs324">
    <clipPath
       id="p5cc845d2d5">
      <rect
         height="253.408942199"
         width="377.023060345"
         x="45.3769396552"
         y="26.3036690927"
         id="rect327" />
    </clipPath>
  </defs>
</svg>
