<?xml version="1.0" encoding="utf-8" standalone="no"?>
<!DOCTYPE svg PUBLIC "-//W3C//DTD SVG 1.1//EN"
  "http://www.w3.org/Graphics/SVG/1.1/DTD/svg11.dtd">
<!-- Created with matplotlib (http://matplotlib.org/) -->
<svg height="324pt" version="1.1" viewBox="0 0 432 324" width="432pt" xmlns="http://www.w3.org/2000/svg" xmlns:xlink="http://www.w3.org/1999/xlink">
 <defs>
  <style type="text/css">
*{stroke-linecap:butt;stroke-linejoin:round;}
  </style>
 </defs>
 <g id="figure_1">
  <g id="patch_1">
   <path d="
M0 324
L432 324
L432 0
L0 0
z
" style="fill:#ffffff;"/>
  </g>
  <g id="axes_1">
   <g id="patch_2">
    <path d="
M45.3769 256.584
L422.4 256.584
L422.4 67.416
L45.3769 67.416
z
" style="fill:#ffffff;"/>
   </g>
   <g id="patch_3">
    <path clip-path="url(#p4576accabb)" d="
M66.0541 71.0539
C69.6149 71.0539 73.0304 72.4686 75.5483 74.9865
C78.0662 77.5044 79.4809 80.9198 79.4809 84.4806
C79.4809 88.0415 78.0662 91.4569 75.5483 93.9748
C73.0304 96.4927 69.6149 97.9074 66.0541 97.9074
C62.4933 97.9074 59.0779 96.4927 56.56 93.9748
C54.0421 91.4569 52.6274 88.0415 52.6274 84.4806
C52.6274 80.9198 54.0421 77.5044 56.56 74.9865
C59.0779 72.4686 62.4933 71.0539 66.0541 71.0539
z
" style="fill:none;stroke:#000000;stroke-linejoin:miter;"/>
   </g>
   <g id="patch_4">
    <path clip-path="url(#p4576accabb)" d="
M88.432 109.814
C91.9929 109.814 95.4083 111.228 97.9262 113.746
C100.444 116.264 101.859 119.68 101.859 123.24
C101.859 126.801 100.444 130.217 97.9262 132.734
C95.4083 135.252 91.9929 136.667 88.432 136.667
C84.8712 136.667 81.4558 135.252 78.9379 132.734
C76.42 130.217 75.0053 126.801 75.0053 123.24
C75.0053 119.68 76.42 116.264 78.9379 113.746
C81.4558 111.228 84.8712 109.814 88.432 109.814
z
" style="fill:none;stroke:#000000;stroke-linejoin:miter;"/>
   </g>
   <g id="patch_5">
    <path clip-path="url(#p4576accabb)" d="
M110.81 148.573
C114.371 148.573 117.786 149.988 120.304 152.506
C122.822 155.024 124.237 158.439 124.237 162
C124.237 165.561 122.822 168.976 120.304 171.494
C117.786 174.012 114.371 175.427 110.81 175.427
C107.249 175.427 103.834 174.012 101.316 171.494
C98.7979 168.976 97.3832 165.561 97.3832 162
C97.3832 158.439 98.7979 155.024 101.316 152.506
C103.834 149.988 107.249 148.573 110.81 148.573
z
" style="fill:none;stroke:#000000;stroke-linejoin:miter;"/>
   </g>
   <g id="patch_6">
    <path clip-path="url(#p4576accabb)" d="
M133.188 187.333
C136.749 187.333 140.164 188.748 142.682 191.266
C145.2 193.783 146.615 197.199 146.615 200.76
C146.615 204.32 145.2 207.736 142.682 210.254
C140.164 212.772 136.749 214.186 133.188 214.186
C129.627 214.186 126.212 212.772 123.694 210.254
C121.176 207.736 119.761 204.32 119.761 200.76
C119.761 197.199 121.176 193.783 123.694 191.266
C126.212 188.748 129.627 187.333 133.188 187.333
z
" style="fill:none;stroke:#000000;stroke-linejoin:miter;"/>
   </g>
   <g id="patch_7">
    <path clip-path="url(#p4576accabb)" d="
M155.566 226.093
C159.127 226.093 162.542 227.507 165.06 230.025
C167.578 232.543 168.993 235.959 168.993 239.519
C168.993 243.08 167.578 246.496 165.06 249.014
C162.542 251.531 159.127 252.946 155.566 252.946
C152.005 252.946 148.59 251.531 146.072 249.014
C143.554 246.496 142.139 243.08 142.139 239.519
C142.139 235.959 143.554 232.543 146.072 230.025
C148.59 227.507 152.005 226.093 155.566 226.093
z
" style="fill:none;stroke:#000000;stroke-linejoin:miter;"/>
   </g>
   <g id="patch_8">
    <path clip-path="url(#p4576accabb)" d="
M110.81 71.0539
C114.371 71.0539 117.786 72.4686 120.304 74.9865
C122.822 77.5044 124.237 80.9198 124.237 84.4806
C124.237 88.0415 122.822 91.4569 120.304 93.9748
C117.786 96.4927 114.371 97.9074 110.81 97.9074
C107.249 97.9074 103.834 96.4927 101.316 93.9748
C98.7979 91.4569 97.3832 88.0415 97.3832 84.4806
C97.3832 80.9198 98.7979 77.5044 101.316 74.9865
C103.834 72.4686 107.249 71.0539 110.81 71.0539
z
" style="fill:none;stroke:#000000;stroke-linejoin:miter;"/>
   </g>
   <g id="patch_9">
    <path clip-path="url(#p4576accabb)" d="
M133.188 109.814
C136.749 109.814 140.164 111.228 142.682 113.746
C145.2 116.264 146.615 119.68 146.615 123.24
C146.615 126.801 145.2 130.217 142.682 132.734
C140.164 135.252 136.749 136.667 133.188 136.667
C129.627 136.667 126.212 135.252 123.694 132.734
C121.176 130.217 119.761 126.801 119.761 123.24
C119.761 119.68 121.176 116.264 123.694 113.746
C126.212 111.228 129.627 109.814 133.188 109.814
z
" style="fill:none;stroke:#000000;stroke-linejoin:miter;"/>
   </g>
   <g id="patch_10">
    <path clip-path="url(#p4576accabb)" d="
M155.566 148.573
C159.127 148.573 162.542 149.988 165.06 152.506
C167.578 155.024 168.993 158.439 168.993 162
C168.993 165.561 167.578 168.976 165.06 171.494
C162.542 174.012 159.127 175.427 155.566 175.427
C152.005 175.427 148.59 174.012 146.072 171.494
C143.554 168.976 142.139 165.561 142.139 162
C142.139 158.439 143.554 155.024 146.072 152.506
C148.59 149.988 152.005 148.573 155.566 148.573
z
" style="fill:none;stroke:#000000;stroke-linejoin:miter;"/>
   </g>
   <g id="patch_11">
    <path clip-path="url(#p4576accabb)" d="
M177.944 187.333
C181.505 187.333 184.92 188.748 187.438 191.266
C189.956 193.783 191.37 197.199 191.37 200.76
C191.37 204.32 189.956 207.736 187.438 210.254
C184.92 212.772 181.505 214.186 177.944 214.186
C174.383 214.186 170.967 212.772 168.45 210.254
C165.932 207.736 164.517 204.32 164.517 200.76
C164.517 197.199 165.932 193.783 168.45 191.266
C170.967 188.748 174.383 187.333 177.944 187.333
z
" style="fill:none;stroke:#000000;stroke-linejoin:miter;"/>
   </g>
   <g id="patch_12">
    <path clip-path="url(#p4576accabb)" d="
M200.322 226.093
C203.882 226.093 207.298 227.507 209.816 230.025
C212.334 232.543 213.748 235.959 213.748 239.519
C213.748 243.08 212.334 246.496 209.816 249.014
C207.298 251.531 203.882 252.946 200.322 252.946
C196.761 252.946 193.345 251.531 190.827 249.014
C188.31 246.496 186.895 243.08 186.895 239.519
C186.895 235.959 188.31 232.543 190.827 230.025
C193.345 227.507 196.761 226.093 200.322 226.093
z
" style="fill:none;stroke:#000000;stroke-linejoin:miter;"/>
   </g>
   <g id="patch_13">
    <path clip-path="url(#p4576accabb)" d="
M155.566 71.0539
C159.127 71.0539 162.542 72.4686 165.06 74.9865
C167.578 77.5044 168.993 80.9198 168.993 84.4806
C168.993 88.0415 167.578 91.4569 165.06 93.9748
C162.542 96.4927 159.127 97.9074 155.566 97.9074
C152.005 97.9074 148.59 96.4927 146.072 93.9748
C143.554 91.4569 142.139 88.0415 142.139 84.4806
C142.139 80.9198 143.554 77.5044 146.072 74.9865
C148.59 72.4686 152.005 71.0539 155.566 71.0539
z
" style="fill:none;stroke:#000000;stroke-linejoin:miter;"/>
   </g>
   <g id="patch_14">
    <path clip-path="url(#p4576accabb)" d="
M177.944 109.814
C181.505 109.814 184.92 111.228 187.438 113.746
C189.956 116.264 191.37 119.68 191.37 123.24
C191.37 126.801 189.956 130.217 187.438 132.734
C184.92 135.252 181.505 136.667 177.944 136.667
C174.383 136.667 170.967 135.252 168.45 132.734
C165.932 130.217 164.517 126.801 164.517 123.24
C164.517 119.68 165.932 116.264 168.45 113.746
C170.967 111.228 174.383 109.814 177.944 109.814
z
" style="fill:none;stroke:#000000;stroke-linejoin:miter;"/>
   </g>
   <g id="patch_15">
    <path clip-path="url(#p4576accabb)" d="
M222.7 187.333
C226.26 187.333 229.676 188.748 232.194 191.266
C234.712 193.783 236.126 197.199 236.126 200.76
C236.126 204.32 234.712 207.736 232.194 210.254
C229.676 212.772 226.26 214.186 222.7 214.186
C219.139 214.186 215.723 212.772 213.205 210.254
C210.687 207.736 209.273 204.32 209.273 200.76
C209.273 197.199 210.687 193.783 213.205 191.266
C215.723 188.748 219.139 187.333 222.7 187.333
z
" style="fill:none;stroke:#000000;stroke-linejoin:miter;"/>
   </g>
   <g id="patch_16">
    <path clip-path="url(#p4576accabb)" d="
M245.077 226.093
C248.638 226.093 252.054 227.507 254.572 230.025
C257.089 232.543 258.504 235.959 258.504 239.519
C258.504 243.08 257.089 246.496 254.572 249.014
C252.054 251.531 248.638 252.946 245.077 252.946
C241.517 252.946 238.101 251.531 235.583 249.014
C233.065 246.496 231.651 243.08 231.651 239.519
C231.651 235.959 233.065 232.543 235.583 230.025
C238.101 227.507 241.517 226.093 245.077 226.093
z
" style="fill:none;stroke:#000000;stroke-linejoin:miter;"/>
   </g>
   <g id="patch_17">
    <path clip-path="url(#p4576accabb)" d="
M200.322 71.0539
C203.882 71.0539 207.298 72.4686 209.816 74.9865
C212.334 77.5044 213.748 80.9198 213.748 84.4806
C213.748 88.0415 212.334 91.4569 209.816 93.9748
C207.298 96.4927 203.882 97.9074 200.322 97.9074
C196.761 97.9074 193.345 96.4927 190.827 93.9748
C188.31 91.4569 186.895 88.0415 186.895 84.4806
C186.895 80.9198 188.31 77.5044 190.827 74.9865
C193.345 72.4686 196.761 71.0539 200.322 71.0539
z
" style="fill:none;stroke:#000000;stroke-linejoin:miter;"/>
   </g>
   <g id="patch_18">
    <path clip-path="url(#p4576accabb)" d="
M222.7 109.814
C226.26 109.814 229.676 111.228 232.194 113.746
C234.712 116.264 236.126 119.68 236.126 123.24
C236.126 126.801 234.712 130.217 232.194 132.734
C229.676 135.252 226.26 136.667 222.7 136.667
C219.139 136.667 215.723 135.252 213.205 132.734
C210.687 130.217 209.273 126.801 209.273 123.24
C209.273 119.68 210.687 116.264 213.205 113.746
C215.723 111.228 219.139 109.814 222.7 109.814
z
" style="fill:none;stroke:#000000;stroke-linejoin:miter;"/>
   </g>
   <g id="patch_19">
    <path clip-path="url(#p4576accabb)" d="
M245.077 148.573
C248.638 148.573 252.054 149.988 254.572 152.506
C257.089 155.024 258.504 158.439 258.504 162
C258.504 165.561 257.089 168.976 254.572 171.494
C252.054 174.012 248.638 175.427 245.077 175.427
C241.517 175.427 238.101 174.012 235.583 171.494
C233.065 168.976 231.651 165.561 231.651 162
C231.651 158.439 233.065 155.024 235.583 152.506
C238.101 149.988 241.517 148.573 245.077 148.573
z
" style="fill:none;stroke:#000000;stroke-linejoin:miter;"/>
   </g>
   <g id="patch_20">
    <path clip-path="url(#p4576accabb)" d="
M267.455 187.333
C271.016 187.333 274.432 188.748 276.949 191.266
C279.467 193.783 280.882 197.199 280.882 200.76
C280.882 204.32 279.467 207.736 276.949 210.254
C274.432 212.772 271.016 214.186 267.455 214.186
C263.895 214.186 260.479 212.772 257.961 210.254
C255.443 207.736 254.029 204.32 254.029 200.76
C254.029 197.199 255.443 193.783 257.961 191.266
C260.479 188.748 263.895 187.333 267.455 187.333
z
" style="fill:none;stroke:#000000;stroke-linejoin:miter;"/>
   </g>
   <g id="patch_21">
    <path clip-path="url(#p4576accabb)" d="
M289.833 226.093
C293.394 226.093 296.81 227.507 299.327 230.025
C301.845 232.543 303.26 235.959 303.26 239.519
C303.26 243.08 301.845 246.496 299.327 249.014
C296.81 251.531 293.394 252.946 289.833 252.946
C286.272 252.946 282.857 251.531 280.339 249.014
C277.821 246.496 276.407 243.08 276.407 239.519
C276.407 235.959 277.821 232.543 280.339 230.025
C282.857 227.507 286.272 226.093 289.833 226.093
z
" style="fill:none;stroke:#000000;stroke-linejoin:miter;"/>
   </g>
   <g id="patch_22">
    <path clip-path="url(#p4576accabb)" d="
M245.077 71.0539
C248.638 71.0539 252.054 72.4686 254.572 74.9865
C257.089 77.5044 258.504 80.9198 258.504 84.4806
C258.504 88.0415 257.089 91.4569 254.572 93.9748
C252.054 96.4927 248.638 97.9074 245.077 97.9074
C241.517 97.9074 238.101 96.4927 235.583 93.9748
C233.065 91.4569 231.651 88.0415 231.651 84.4806
C231.651 80.9198 233.065 77.5044 235.583 74.9865
C238.101 72.4686 241.517 71.0539 245.077 71.0539
z
" style="fill:none;stroke:#000000;stroke-linejoin:miter;"/>
   </g>
   <g id="patch_23">
    <path clip-path="url(#p4576accabb)" d="
M267.455 109.814
C271.016 109.814 274.432 111.228 276.949 113.746
C279.467 116.264 280.882 119.68 280.882 123.24
C280.882 126.801 279.467 130.217 276.949 132.734
C274.432 135.252 271.016 136.667 267.455 136.667
C263.895 136.667 260.479 135.252 257.961 132.734
C255.443 130.217 254.029 126.801 254.029 123.24
C254.029 119.68 255.443 116.264 257.961 113.746
C260.479 111.228 263.895 109.814 267.455 109.814
z
" style="fill:none;stroke:#000000;stroke-linejoin:miter;"/>
   </g>
   <g id="patch_24">
    <path clip-path="url(#p4576accabb)" d="
M289.833 148.573
C293.394 148.573 296.81 149.988 299.327 152.506
C301.845 155.024 303.26 158.439 303.26 162
C303.26 165.561 301.845 168.976 299.327 171.494
C296.81 174.012 293.394 175.427 289.833 175.427
C286.272 175.427 282.857 174.012 280.339 171.494
C277.821 168.976 276.407 165.561 276.407 162
C276.407 158.439 277.821 155.024 280.339 152.506
C282.857 149.988 286.272 148.573 289.833 148.573
z
" style="fill:none;stroke:#000000;stroke-linejoin:miter;"/>
   </g>
   <g id="patch_25">
    <path clip-path="url(#p4576accabb)" d="
M312.211 187.333
C315.772 187.333 319.187 188.748 321.705 191.266
C324.223 193.783 325.638 197.199 325.638 200.76
C325.638 204.32 324.223 207.736 321.705 210.254
C319.187 212.772 315.772 214.186 312.211 214.186
C308.65 214.186 305.235 212.772 302.717 210.254
C300.199 207.736 298.784 204.32 298.784 200.76
C298.784 197.199 300.199 193.783 302.717 191.266
C305.235 188.748 308.65 187.333 312.211 187.333
z
" style="fill:none;stroke:#000000;stroke-linejoin:miter;"/>
   </g>
   <g id="patch_26">
    <path clip-path="url(#p4576accabb)" d="
M334.589 226.093
C338.15 226.093 341.565 227.507 344.083 230.025
C346.601 232.543 348.016 235.959 348.016 239.519
C348.016 243.08 346.601 246.496 344.083 249.014
C341.565 251.531 338.15 252.946 334.589 252.946
C331.028 252.946 327.613 251.531 325.095 249.014
C322.577 246.496 321.162 243.08 321.162 239.519
C321.162 235.959 322.577 232.543 325.095 230.025
C327.613 227.507 331.028 226.093 334.589 226.093
z
" style="fill:none;stroke:#000000;stroke-linejoin:miter;"/>
   </g>
   <g id="patch_27">
    <path clip-path="url(#p4576accabb)" d="
M289.833 71.0539
C293.394 71.0539 296.81 72.4686 299.327 74.9865
C301.845 77.5044 303.26 80.9198 303.26 84.4806
C303.26 88.0415 301.845 91.4569 299.327 93.9748
C296.81 96.4927 293.394 97.9074 289.833 97.9074
C286.272 97.9074 282.857 96.4927 280.339 93.9748
C277.821 91.4569 276.407 88.0415 276.407 84.4806
C276.407 80.9198 277.821 77.5044 280.339 74.9865
C282.857 72.4686 286.272 71.0539 289.833 71.0539
z
" style="fill:none;stroke:#000000;stroke-linejoin:miter;"/>
   </g>
   <g id="patch_28">
    <path clip-path="url(#p4576accabb)" d="
M312.211 109.814
C315.772 109.814 319.187 111.228 321.705 113.746
C324.223 116.264 325.638 119.68 325.638 123.24
C325.638 126.801 324.223 130.217 321.705 132.734
C319.187 135.252 315.772 136.667 312.211 136.667
C308.65 136.667 305.235 135.252 302.717 132.734
C300.199 130.217 298.784 126.801 298.784 123.24
C298.784 119.68 300.199 116.264 302.717 113.746
C305.235 111.228 308.65 109.814 312.211 109.814
z
" style="fill:none;stroke:#000000;stroke-linejoin:miter;"/>
   </g>
   <g id="patch_29">
    <path clip-path="url(#p4576accabb)" d="
M334.589 148.573
C338.15 148.573 341.565 149.988 344.083 152.506
C346.601 155.024 348.016 158.439 348.016 162
C348.016 165.561 346.601 168.976 344.083 171.494
C341.565 174.012 338.15 175.427 334.589 175.427
C331.028 175.427 327.613 174.012 325.095 171.494
C322.577 168.976 321.162 165.561 321.162 162
C321.162 158.439 322.577 155.024 325.095 152.506
C327.613 149.988 331.028 148.573 334.589 148.573
z
" style="fill:none;stroke:#000000;stroke-linejoin:miter;"/>
   </g>
   <g id="patch_30">
    <path clip-path="url(#p4576accabb)" d="
M356.967 187.333
C360.528 187.333 363.943 188.748 366.461 191.266
C368.979 193.783 370.394 197.199 370.394 200.76
C370.394 204.32 368.979 207.736 366.461 210.254
C363.943 212.772 360.528 214.186 356.967 214.186
C353.406 214.186 349.991 212.772 347.473 210.254
C344.955 207.736 343.54 204.32 343.54 200.76
C343.54 197.199 344.955 193.783 347.473 191.266
C349.991 188.748 353.406 187.333 356.967 187.333
z
" style="fill:none;stroke:#000000;stroke-linejoin:miter;"/>
   </g>
   <g id="patch_31">
    <path clip-path="url(#p4576accabb)" d="
M379.345 226.093
C382.906 226.093 386.321 227.507 388.839 230.025
C391.357 232.543 392.772 235.959 392.772 239.519
C392.772 243.08 391.357 246.496 388.839 249.014
C386.321 251.531 382.906 252.946 379.345 252.946
C375.784 252.946 372.369 251.531 369.851 249.014
C367.333 246.496 365.918 243.08 365.918 239.519
C365.918 235.959 367.333 232.543 369.851 230.025
C372.369 227.507 375.784 226.093 379.345 226.093
z
" style="fill:none;stroke:#000000;stroke-linejoin:miter;"/>
   </g>
   <g id="patch_32">
    <path clip-path="url(#p4576accabb)" d="
M401.723 187.333
C405.284 187.333 408.699 188.748 411.217 191.266
C413.735 193.783 415.15 197.199 415.15 200.76
C415.15 204.32 413.735 207.736 411.217 210.254
C408.699 212.772 405.284 214.186 401.723 214.186
C398.162 214.186 394.747 212.772 392.229 210.254
C389.711 207.736 388.296 204.32 388.296 200.76
C388.296 197.199 389.711 193.783 392.229 191.266
C394.747 188.748 398.162 187.333 401.723 187.333
z
" style="fill:none;stroke:#000000;stroke-linejoin:miter;"/>
   </g>
   <g id="patch_33">
    <path d="
M45.3769 67.416
L422.4 67.416" style="fill:none;stroke:#000000;stroke-linecap:square;stroke-linejoin:miter;"/>
   </g>
   <g id="patch_34">
    <path d="
M422.4 256.584
L422.4 67.416" style="fill:none;stroke:#000000;stroke-linecap:square;stroke-linejoin:miter;"/>
   </g>
   <g id="patch_35">
    <path d="
M45.3769 256.584
L422.4 256.584" style="fill:none;stroke:#000000;stroke-linecap:square;stroke-linejoin:miter;"/>
   </g>
   <g id="patch_36">
    <path d="
M45.3769 256.584
L45.3769 67.416" style="fill:none;stroke:#000000;stroke-linecap:square;stroke-linejoin:miter;"/>
   </g>
   <g id="matplotlib.axis_1">
    <g id="xtick_1">
     <g id="line2d_1">
      <defs>
       <path d="
M0 0
L0 -4" id="m93b0483c22" style="stroke:#000000;stroke-width:0.5;"/>
      </defs>
      <g>
       <use style="stroke:#000000;stroke-width:0.5;" x="66.0541302866" xlink:href="#m93b0483c22" y="256.583952376"/>
      </g>
     </g>
     <g id="line2d_2">
      <defs>
       <path d="
M0 0
L0 4" id="m741efc42ff" style="stroke:#000000;stroke-width:0.5;"/>
      </defs>
      <g>
       <use style="stroke:#000000;stroke-width:0.5;" x="66.0541302866" xlink:href="#m741efc42ff" y="67.416047624"/>
      </g>
     </g>
     <g id="text_1">
      <text style="font-family:Liberation Sans;font-size:12.0px;font-style:normal;text-anchor:middle;" transform="rotate(-0.000000, 66.054130, 269.280202)" x="66.0541302866" y="269.280202376">−3</text>
     </g>
    </g>
    <g id="xtick_2">
     <g id="line2d_3">
      <g>
       <use style="stroke:#000000;stroke-width:0.5;" x="110.809954164" xlink:href="#m93b0483c22" y="256.583952376"/>
      </g>
     </g>
     <g id="line2d_4">
      <g>
       <use style="stroke:#000000;stroke-width:0.5;" x="110.809954164" xlink:href="#m741efc42ff" y="67.416047624"/>
      </g>
     </g>
     <g id="text_2">
      <text style="font-family:Liberation Sans;font-size:12.0px;font-style:normal;text-anchor:middle;" transform="rotate(-0.000000, 110.809954, 269.280202)" x="110.809954164" y="269.280202376">−2</text>
     </g>
    </g>
    <g id="xtick_3">
     <g id="line2d_5">
      <g>
       <use style="stroke:#000000;stroke-width:0.5;" x="155.565778042" xlink:href="#m93b0483c22" y="256.583952376"/>
      </g>
     </g>
     <g id="line2d_6">
      <g>
       <use style="stroke:#000000;stroke-width:0.5;" x="155.565778042" xlink:href="#m741efc42ff" y="67.416047624"/>
      </g>
     </g>
     <g id="text_3">
      <text style="font-family:Liberation Sans;font-size:12.0px;font-style:normal;text-anchor:middle;" transform="rotate(-0.000000, 155.565778, 269.280202)" x="155.565778042" y="269.280202376">−1</text>
     </g>
    </g>
    <g id="xtick_4">
     <g id="line2d_7">
      <g>
       <use style="stroke:#000000;stroke-width:0.5;" x="200.321601919" xlink:href="#m93b0483c22" y="256.583952376"/>
      </g>
     </g>
     <g id="line2d_8">
      <g>
       <use style="stroke:#000000;stroke-width:0.5;" x="200.321601919" xlink:href="#m741efc42ff" y="67.416047624"/>
      </g>
     </g>
     <g id="text_4">
      <text style="font-family:Liberation Sans;font-size:12.0px;font-style:normal;text-anchor:middle;" transform="rotate(-0.000000, 200.321602, 269.280202)" x="200.321601919" y="269.280202376">0</text>
     </g>
    </g>
    <g id="xtick_5">
     <g id="line2d_9">
      <g>
       <use style="stroke:#000000;stroke-width:0.5;" x="245.077425797" xlink:href="#m93b0483c22" y="256.583952376"/>
      </g>
     </g>
     <g id="line2d_10">
      <g>
       <use style="stroke:#000000;stroke-width:0.5;" x="245.077425797" xlink:href="#m741efc42ff" y="67.416047624"/>
      </g>
     </g>
     <g id="text_5">
      <text style="font-family:Liberation Sans;font-size:12.0px;font-style:normal;text-anchor:middle;" transform="rotate(-0.000000, 245.077426, 269.280202)" x="245.077425797" y="269.280202376">1</text>
     </g>
    </g>
    <g id="xtick_6">
     <g id="line2d_11">
      <g>
       <use style="stroke:#000000;stroke-width:0.5;" x="289.833249675" xlink:href="#m93b0483c22" y="256.583952376"/>
      </g>
     </g>
     <g id="line2d_12">
      <g>
       <use style="stroke:#000000;stroke-width:0.5;" x="289.833249675" xlink:href="#m741efc42ff" y="67.416047624"/>
      </g>
     </g>
     <g id="text_6">
      <text style="font-family:Liberation Sans;font-size:12.0px;font-style:normal;text-anchor:middle;" transform="rotate(-0.000000, 289.833250, 269.280202)" x="289.833249675" y="269.280202376">2</text>
     </g>
    </g>
    <g id="xtick_7">
     <g id="line2d_13">
      <g>
       <use style="stroke:#000000;stroke-width:0.5;" x="334.589073552" xlink:href="#m93b0483c22" y="256.583952376"/>
      </g>
     </g>
     <g id="line2d_14">
      <g>
       <use style="stroke:#000000;stroke-width:0.5;" x="334.589073552" xlink:href="#m741efc42ff" y="67.416047624"/>
      </g>
     </g>
     <g id="text_7">
      <text style="font-family:Liberation Sans;font-size:12.0px;font-style:normal;text-anchor:middle;" transform="rotate(-0.000000, 334.589074, 269.280202)" x="334.589073552" y="269.280202376">3</text>
     </g>
    </g>
    <g id="xtick_8">
     <g id="line2d_15">
      <g>
       <use style="stroke:#000000;stroke-width:0.5;" x="379.34489743" xlink:href="#m93b0483c22" y="256.583952376"/>
      </g>
     </g>
     <g id="line2d_16">
      <g>
       <use style="stroke:#000000;stroke-width:0.5;" x="379.34489743" xlink:href="#m741efc42ff" y="67.416047624"/>
      </g>
     </g>
     <g id="text_8">
      <text style="font-family:Liberation Sans;font-size:12.0px;font-style:normal;text-anchor:middle;" transform="rotate(-0.000000, 379.344897, 269.280202)" x="379.34489743" y="269.280202376">4</text>
     </g>
    </g>
    <g id="text_9">
     <!-- $y$ [µm] -->
     <g transform="translate(217.388469828 285.530202376)">
      <text>
       <tspan style="font-family:Liberation Sans;font-size:12.0px;font-style:regular;" x="6.0 9.333984375 12.66796875 19.58203125 29.578125" y="-0.296875"> [µm]</tspan>
       <tspan style="font-family:Liberation Sans;font-size:12.0px;font-style:italic;" x="0.0" y="-0.296875">y</tspan>
      </text>
     </g>
    </g>
   </g>
   <g id="matplotlib.axis_2">
    <g id="ytick_1">
     <g id="line2d_17">
      <defs>
       <path d="
M0 0
L4 0" id="m728421d6d4" style="stroke:#000000;stroke-width:0.5;"/>
      </defs>
      <g>
       <use style="stroke:#000000;stroke-width:0.5;" x="45.3769396552" xlink:href="#m728421d6d4" y="72.4883522448"/>
      </g>
     </g>
     <g id="line2d_18">
      <defs>
       <path d="
M0 0
L-4 0" id="mcb0005524f" style="stroke:#000000;stroke-width:0.5;"/>
      </defs>
      <g>
       <use style="stroke:#000000;stroke-width:0.5;" x="422.4" xlink:href="#mcb0005524f" y="72.4883522448"/>
      </g>
     </g>
     <g id="text_10">
      <text style="font-family:Liberation Sans;font-size:12.0px;font-style:normal;text-anchor:end;" transform="rotate(-0.000000, 41.376940, 75.591477)" x="41.3769396552" y="75.5914772448">−2</text>
     </g>
    </g>
    <g id="ytick_2">
     <g id="line2d_19">
      <g>
       <use style="stroke:#000000;stroke-width:0.5;" x="45.3769396552" xlink:href="#m728421d6d4" y="117.244176122"/>
      </g>
     </g>
     <g id="line2d_20">
      <g>
       <use style="stroke:#000000;stroke-width:0.5;" x="422.4" xlink:href="#mcb0005524f" y="117.244176122"/>
      </g>
     </g>
     <g id="text_11">
      <text style="font-family:Liberation Sans;font-size:12.0px;font-style:normal;text-anchor:end;" transform="rotate(-0.000000, 41.376940, 120.347301)" x="41.3769396552" y="120.347301122">−1</text>
     </g>
    </g>
    <g id="ytick_3">
     <g id="line2d_21">
      <g>
       <use style="stroke:#000000;stroke-width:0.5;" x="45.3769396552" xlink:href="#m728421d6d4" y="162.0"/>
      </g>
     </g>
     <g id="line2d_22">
      <g>
       <use style="stroke:#000000;stroke-width:0.5;" x="422.4" xlink:href="#mcb0005524f" y="162.0"/>
      </g>
     </g>
     <g id="text_12">
      <text style="font-family:Liberation Sans;font-size:12.0px;font-style:normal;text-anchor:end;" transform="rotate(-0.000000, 41.376940, 165.103125)" x="41.3769396552" y="165.103125">0</text>
     </g>
    </g>
    <g id="ytick_4">
     <g id="line2d_23">
      <g>
       <use style="stroke:#000000;stroke-width:0.5;" x="45.3769396552" xlink:href="#m728421d6d4" y="206.755823878"/>
      </g>
     </g>
     <g id="line2d_24">
      <g>
       <use style="stroke:#000000;stroke-width:0.5;" x="422.4" xlink:href="#mcb0005524f" y="206.755823878"/>
      </g>
     </g>
     <g id="text_13">
      <text style="font-family:Liberation Sans;font-size:12.0px;font-style:normal;text-anchor:end;" transform="rotate(-0.000000, 41.376940, 209.858949)" x="41.3769396552" y="209.858948878">1</text>
     </g>
    </g>
    <g id="ytick_5">
     <g id="line2d_25">
      <g>
       <use style="stroke:#000000;stroke-width:0.5;" x="45.3769396552" xlink:href="#m728421d6d4" y="251.511647755"/>
      </g>
     </g>
     <g id="line2d_26">
      <g>
       <use style="stroke:#000000;stroke-width:0.5;" x="422.4" xlink:href="#mcb0005524f" y="251.511647755"/>
      </g>
     </g>
     <g id="text_14">
      <text style="font-family:Liberation Sans;font-size:12.0px;font-style:normal;text-anchor:end;" transform="rotate(-0.000000, 41.376940, 254.614773)" x="41.3769396552" y="254.614772755">2</text>
     </g>
    </g>
    <g id="text_15">
     <!-- $x$ [µm] -->
     <g transform="translate(21.3525646552 178.5)rotate(-90.0)">
      <text>
       <tspan style="font-family:Liberation Sans;font-size:12.0px;font-style:regular;" x="6.0 9.333984375 12.66796875 19.58203125 29.578125" y="-0.296875"> [µm]</tspan>
       <tspan style="font-family:Liberation Sans;font-size:12.0px;font-style:italic;" x="0.0" y="-0.296875">x</tspan>
      </text>
     </g>
    </g>
   </g>
  </g>
 </g>
 <defs>
  <clipPath id="p4576accabb">
   <rect height="189.167904752" width="377.023060345" x="45.3769396552" y="67.416047624"/>
  </clipPath>
 </defs>
</svg>
